NotoSansThaana-Regular.ufo
<glyph name="exclam" format="2">
  <advance width="402"/>
  <unicode hex="0021"/>
  <outline>
    <contour>
      <point x="185" y="208" type="curve" smooth="yes"/>
      <point x="208" y="208"/>
      <point x="229" y="220"/>
      <point x="234" y="242" type="curve" smooth="yes"/>
      <point x="246" y="291"/>
      <point x="257" y="342"/>
      <point x="302" y="479" type="curve" smooth="yes"/>
      <point x="330" y="563"/>
      <point x="345" y="610"/>
      <point x="354" y="632" type="curve" smooth="yes"/>
      <point x="366" y="663"/>
      <point x="372" y="682"/>
      <point x="372" y="696" type="curve" smooth="yes"/>
      <point x="372" y="716"/>
      <point x="366" y="723"/>
      <point x="347" y="723" type="curve" smooth="yes"/>
      <point x="329" y="723"/>
      <point x="310" y="705"/>
      <point x="290" y="667" type="curve" smooth="yes"/>
      <point x="270" y="630"/>
      <point x="243" y="566"/>
      <point x="206" y="467" type="curve" smooth="yes"/>
      <point x="169" y="368"/>
      <point x="135" y="271"/>
      <point x="135" y="248" type="curve" smooth="yes"/>
      <point x="135" y="215"/>
      <point x="156" y="208"/>
    </contour>
    <contour>
      <point x="146" y="-10" type="curve" smooth="yes"/>
      <point x="194" y="-10"/>
      <point x="236" y="33"/>
      <point x="236" y="78" type="curve" smooth="yes"/>
      <point x="236" y="111"/>
      <point x="211" y="140"/>
      <point x="173" y="140" type="curve" smooth="yes"/>
      <point x="124" y="140"/>
      <point x="84" y="95"/>
      <point x="84" y="50" type="curve" smooth="yes"/>
      <point x="84" y="15"/>
      <point x="108" y="-10"/>
    </contour>
  </outline>
</glyph>
<glyph name="parenleft" format="2">
  <advance width="488"/>
  <unicode hex="0028"/>
  <outline>
    <contour>
      <point x="248" y="-225" type="curve" smooth="yes"/>
      <point x="279" y="-225"/>
      <point x="297" y="-201"/>
      <point x="297" y="-182" type="curve" smooth="yes"/>
      <point x="297" y="-168"/>
      <point x="289" y="-151"/>
      <point x="269" y="-130" type="curve" smooth="yes"/>
      <point x="213" y="-72"/>
      <point x="186" y="7"/>
      <point x="186" y="89" type="curve" smooth="yes"/>
      <point x="186" y="329"/>
      <point x="312" y="565"/>
      <point x="517" y="643" type="curve" smooth="yes"/>
      <point x="548" y="655"/>
      <point x="560" y="665"/>
      <point x="560" y="686" type="curve" smooth="yes"/>
      <point x="560" y="702"/>
      <point x="546" y="715"/>
      <point x="525" y="715" type="curve" smooth="yes"/>
      <point x="477" y="715"/>
      <point x="414" y="683"/>
      <point x="365" y="649" type="curve" smooth="yes"/>
      <point x="193" y="529"/>
      <point x="88" y="304"/>
      <point x="88" y="89" type="curve" smooth="yes"/>
      <point x="88" y="-1"/>
      <point x="116" y="-111"/>
      <point x="180" y="-182" type="curve" smooth="yes"/>
      <point x="206" y="-210"/>
      <point x="229" y="-225"/>
    </contour>
  </outline>
</glyph>
<glyph name="parenright" format="2">
  <advance width="488"/>
  <unicode hex="0029"/>
  <outline>
    <contour>
      <point x="-24" y="-225" type="curve" smooth="yes"/>
      <point x="-1" y="-225"/>
      <point x="25" y="-219"/>
      <point x="53" y="-206" type="curve" smooth="yes"/>
      <point x="274" y="-108"/>
      <point x="413" y="153"/>
      <point x="413" y="401" type="curve" smooth="yes"/>
      <point x="413" y="491"/>
      <point x="384" y="602"/>
      <point x="321" y="671" type="curve" smooth="yes"/>
      <point x="295" y="700"/>
      <point x="272" y="715"/>
      <point x="253" y="715" type="curve" smooth="yes"/>
      <point x="222" y="715"/>
      <point x="204" y="691"/>
      <point x="204" y="672" type="curve" smooth="yes"/>
      <point x="204" y="658"/>
      <point x="212" y="641"/>
      <point x="232" y="620" type="curve" smooth="yes"/>
      <point x="288" y="562"/>
      <point x="315" y="483"/>
      <point x="315" y="401" type="curve" smooth="yes"/>
      <point x="315" y="160"/>
      <point x="188" y="-75"/>
      <point x="-16" y="-153" type="curve" smooth="yes"/>
      <point x="-48" y="-165"/>
      <point x="-59" y="-176"/>
      <point x="-59" y="-196" type="curve" smooth="yes"/>
      <point x="-59" y="-212"/>
      <point x="-45" y="-225"/>
    </contour>
  </outline>
</glyph>
<glyph name="comma" format="2">
  <advance width="364"/>
  <unicode hex="002C"/>
  <outline>
    <contour>
      <point x="99" y="-128" type="curve" smooth="yes"/>
      <point x="116" y="-128"/>
      <point x="131" y="-115"/>
      <point x="142" y="-105" type="curve" smooth="yes"/>
      <point x="173" y="-79"/>
      <point x="243" y="13"/>
      <point x="243" y="66" type="curve" smooth="yes"/>
      <point x="243" y="112"/>
      <point x="214" y="136"/>
      <point x="179" y="136" type="curve" smooth="yes"/>
      <point x="133" y="136"/>
      <point x="92" y="96"/>
      <point x="92" y="53" type="curve" smooth="yes"/>
      <point x="92" y="22"/>
      <point x="115" y="-3"/>
      <point x="148" y="-5" type="curve"/>
      <point x="135" y="-37"/>
      <point x="111" y="-60"/>
      <point x="89" y="-81" type="curve" smooth="yes"/>
      <point x="80" y="-90"/>
      <point x="75" y="-95"/>
      <point x="75" y="-106" type="curve" smooth="yes"/>
      <point x="75" y="-110"/>
      <point x="77" y="-128"/>
    </contour>
  </outline>
</glyph>
<glyph name="period" format="2">
  <advance width="364"/>
  <unicode hex="002E"/>
  <outline>
    <contour>
      <point x="141" y="-10" type="curve" smooth="yes"/>
      <point x="189" y="-10"/>
      <point x="231" y="33"/>
      <point x="231" y="78" type="curve" smooth="yes"/>
      <point x="231" y="111"/>
      <point x="206" y="140"/>
      <point x="168" y="140" type="curve" smooth="yes"/>
      <point x="119" y="140"/>
      <point x="79" y="95"/>
      <point x="79" y="50" type="curve" smooth="yes"/>
      <point x="79" y="15"/>
      <point x="103" y="-10"/>
    </contour>
  </outline>
</glyph>
<glyph name="colon" format="2">
  <advance width="364"/>
  <unicode hex="003A"/>
  <outline>
    <contour>
      <point x="172" y="241" type="curve" smooth="yes"/>
      <point x="221" y="241"/>
      <point x="263" y="284"/>
      <point x="263" y="329" type="curve" smooth="yes"/>
      <point x="263" y="362"/>
      <point x="238" y="391"/>
      <point x="200" y="391" type="curve" smooth="yes"/>
      <point x="151" y="391"/>
      <point x="111" y="346"/>
      <point x="111" y="301" type="curve" smooth="yes"/>
      <point x="111" y="266"/>
      <point x="135" y="241"/>
    </contour>
    <contour>
      <point x="141" y="-10" type="curve" smooth="yes"/>
      <point x="189" y="-10"/>
      <point x="231" y="33"/>
      <point x="231" y="78" type="curve" smooth="yes"/>
      <point x="231" y="111"/>
      <point x="206" y="140"/>
      <point x="168" y="140" type="curve" smooth="yes"/>
      <point x="119" y="140"/>
      <point x="79" y="95"/>
      <point x="79" y="50" type="curve" smooth="yes"/>
      <point x="79" y="15"/>
      <point x="103" y="-10"/>
    </contour>
  </outline>
</glyph>
<glyph name="semicolon" format="2">
  <advance width="364"/>
  <unicode hex="003B"/>
  <outline>
    <contour>
      <point x="89" y="-128" type="curve" smooth="yes"/>
      <point x="106" y="-128"/>
      <point x="121" y="-114"/>
      <point x="132" y="-105" type="curve" smooth="yes"/>
      <point x="163" y="-80"/>
      <point x="233" y="13"/>
      <point x="233" y="66" type="curve" smooth="yes"/>
      <point x="233" y="112"/>
      <point x="204" y="136"/>
      <point x="169" y="136" type="curve" smooth="yes"/>
      <point x="124" y="136"/>
      <point x="83" y="96"/>
      <point x="83" y="53" type="curve" smooth="yes"/>
      <point x="83" y="22"/>
      <point x="105" y="-3"/>
      <point x="138" y="-5" type="curve"/>
      <point x="125" y="-36"/>
      <point x="103" y="-59"/>
      <point x="80" y="-81" type="curve" smooth="yes"/>
      <point x="70" y="-91"/>
      <point x="65" y="-95"/>
      <point x="65" y="-106" type="curve" smooth="yes"/>
      <point x="65" y="-110"/>
      <point x="67" y="-128"/>
    </contour>
    <contour>
      <point x="172" y="241" type="curve" smooth="yes"/>
      <point x="221" y="241"/>
      <point x="263" y="284"/>
      <point x="263" y="329" type="curve" smooth="yes"/>
      <point x="263" y="362"/>
      <point x="238" y="391"/>
      <point x="200" y="391" type="curve" smooth="yes"/>
      <point x="151" y="391"/>
      <point x="111" y="346"/>
      <point x="111" y="301" type="curve" smooth="yes"/>
      <point x="111" y="266"/>
      <point x="135" y="241"/>
    </contour>
  </outline>
</glyph>
<glyph name="uni060C" format="2">
  <advance width="364"/>
  <unicode hex="060C"/>
  <outline>
    <contour>
      <point x="155" y="-10" type="curve" smooth="yes"/>
      <point x="201" y="-10"/>
      <point x="242" y="31"/>
      <point x="242" y="73" type="curve" smooth="yes"/>
      <point x="242" y="104"/>
      <point x="219" y="130"/>
      <point x="186" y="132" type="curve"/>
      <point x="199" y="164"/>
      <point x="223" y="187"/>
      <point x="245" y="208" type="curve" smooth="yes"/>
      <point x="254" y="217"/>
      <point x="259" y="222"/>
      <point x="259" y="233" type="curve" smooth="yes"/>
      <point x="259" y="237"/>
      <point x="257" y="255"/>
      <point x="235" y="255" type="curve" smooth="yes"/>
      <point x="221" y="255"/>
      <point x="205" y="242"/>
      <point x="192" y="231" type="curve" smooth="yes"/>
      <point x="162" y="207"/>
      <point x="91" y="114"/>
      <point x="91" y="60" type="curve" smooth="yes"/>
      <point x="91" y="14"/>
      <point x="120" y="-10"/>
    </contour>
  </outline>
</glyph>
<glyph name="uni061B" format="2">
  <advance width="364"/>
  <unicode hex="061B"/>
  <outline>
    <contour>
      <point x="172" y="241" type="curve" smooth="yes"/>
      <point x="218" y="241"/>
      <point x="259" y="282"/>
      <point x="259" y="324" type="curve" smooth="yes"/>
      <point x="259" y="355"/>
      <point x="236" y="381"/>
      <point x="203" y="383" type="curve"/>
      <point x="216" y="415"/>
      <point x="240" y="438"/>
      <point x="262" y="458" type="curve" smooth="yes"/>
      <point x="272" y="468"/>
      <point x="276" y="473"/>
      <point x="276" y="484" type="curve" smooth="yes"/>
      <point x="276" y="488"/>
      <point x="274" y="506"/>
      <point x="252" y="506" type="curve" smooth="yes"/>
      <point x="238" y="506"/>
      <point x="221" y="492"/>
      <point x="209" y="482" type="curve" smooth="yes"/>
      <point x="179" y="458"/>
      <point x="108" y="365"/>
      <point x="108" y="311" type="curve" smooth="yes"/>
      <point x="108" y="265"/>
      <point x="137" y="241"/>
    </contour>
    <contour>
      <point x="141" y="-10" type="curve" smooth="yes"/>
      <point x="189" y="-10"/>
      <point x="231" y="33"/>
      <point x="231" y="78" type="curve" smooth="yes"/>
      <point x="231" y="111"/>
      <point x="206" y="140"/>
      <point x="168" y="140" type="curve" smooth="yes"/>
      <point x="119" y="140"/>
      <point x="79" y="95"/>
      <point x="79" y="50" type="curve" smooth="yes"/>
      <point x="79" y="15"/>
      <point x="103" y="-10"/>
    </contour>
  </outline>
</glyph>
<glyph name="uni061F" format="2">
  <advance width="479"/>
  <unicode hex="061F"/>
  <outline>
    <contour>
      <point x="219" y="211" type="curve" smooth="yes"/>
      <point x="236" y="211"/>
      <point x="255" y="219"/>
      <point x="269" y="236" type="curve" smooth="yes"/>
      <point x="287" y="258"/>
      <point x="296" y="282"/>
      <point x="296" y="319" type="curve" smooth="yes"/>
      <point x="296" y="364"/>
      <point x="272" y="399"/>
      <point x="248" y="434" type="curve" smooth="yes"/>
      <point x="229" y="462"/>
      <point x="210" y="492"/>
      <point x="210" y="526" type="curve" smooth="yes"/>
      <point x="210" y="594"/>
      <point x="269" y="632"/>
      <point x="335" y="632" type="curve" smooth="yes"/>
      <point x="362" y="632"/>
      <point x="385" y="619"/>
      <point x="405" y="606" type="curve" smooth="yes"/>
      <point x="426" y="592"/>
      <point x="444" y="579"/>
      <point x="461" y="579" type="curve" smooth="yes"/>
      <point x="479" y="579"/>
      <point x="512" y="607"/>
      <point x="512" y="635" type="curve" smooth="yes"/>
      <point x="512" y="644"/>
      <point x="510" y="656"/>
      <point x="490" y="673" type="curve" smooth="yes"/>
      <point x="457" y="702"/>
      <point x="411" y="714"/>
      <point x="349" y="714" type="curve" smooth="yes"/>
      <point x="217" y="714"/>
      <point x="128" y="621"/>
      <point x="128" y="525" type="curve" smooth="yes"/>
      <point x="128" y="477"/>
      <point x="145" y="441"/>
      <point x="162" y="414" type="curve" smooth="yes"/>
      <point x="183" y="381"/>
      <point x="202" y="351"/>
      <point x="202" y="325" type="curve" smooth="yes"/>
      <point x="202" y="301"/>
      <point x="193" y="283"/>
      <point x="185" y="267" type="curve" smooth="yes"/>
      <point x="179" y="255"/>
      <point x="174" y="243"/>
      <point x="174" y="230" type="curve" smooth="yes"/>
      <point x="174" y="212"/>
      <point x="203" y="211"/>
    </contour>
    <contour>
      <point x="160" y="-10" type="curve" smooth="yes"/>
      <point x="208" y="-10"/>
      <point x="250" y="33"/>
      <point x="250" y="78" type="curve" smooth="yes"/>
      <point x="250" y="111"/>
      <point x="226" y="140"/>
      <point x="188" y="140" type="curve" smooth="yes"/>
      <point x="139" y="140"/>
      <point x="99" y="95"/>
      <point x="99" y="50" type="curve" smooth="yes"/>
      <point x="99" y="15"/>
      <point x="123" y="-10"/>
    </contour>
  </outline>
</glyph>
<glyph name="uni0660" format="2">
  <advance width="314"/>
  <unicode hex="0660"/>
  <outline>
    <contour>
      <point x="97" y="391" type="curve" smooth="yes"/>
      <point x="97" y="356"/>
      <point x="128" y="301"/>
      <point x="151" y="301" type="curve" smooth="yes"/>
      <point x="172" y="301"/>
      <point x="210" y="314"/>
      <point x="210" y="337" type="curve" smooth="yes"/>
      <point x="210" y="381"/>
      <point x="186" y="435"/>
      <point x="157" y="435" type="curve" smooth="yes"/>
      <point x="131" y="435"/>
      <point x="97" y="419"/>
    </contour>
  </outline>
</glyph>
<glyph name="uni0661" format="2">
  <advance width="316"/>
  <unicode hex="0661"/>
  <outline>
    <contour>
      <point x="176" y="132" type="curve" smooth="yes"/>
      <point x="198" y="132"/>
      <point x="213" y="143"/>
      <point x="223" y="162" type="curve" smooth="yes"/>
      <point x="235" y="185"/>
      <point x="242" y="240"/>
      <point x="242" y="291" type="curve" smooth="yes"/>
      <point x="242" y="374"/>
      <point x="235" y="452"/>
      <point x="217" y="536" type="curve" smooth="yes"/>
      <point x="202" y="604"/>
      <point x="183" y="662"/>
      <point x="160" y="695" type="curve" smooth="yes"/>
      <point x="147" y="714"/>
      <point x="132" y="717"/>
      <point x="115" y="717" type="curve" smooth="yes"/>
      <point x="88" y="717"/>
      <point x="55" y="696"/>
      <point x="55" y="666" type="curve" smooth="yes"/>
      <point x="55" y="651"/>
      <point x="60" y="637"/>
      <point x="69" y="621" type="curve" smooth="yes"/>
      <point x="95" y="575"/>
      <point x="110" y="524"/>
      <point x="125" y="462" type="curve" smooth="yes"/>
      <point x="139" y="403"/>
      <point x="150" y="332"/>
      <point x="150" y="280" type="curve" smooth="yes"/>
      <point x="150" y="250"/>
      <point x="149" y="223"/>
      <point x="147" y="205" type="curve" smooth="yes"/>
      <point x="145" y="190"/>
      <point x="143" y="174"/>
      <point x="143" y="162" type="curve" smooth="yes"/>
      <point x="143" y="144"/>
      <point x="156" y="132"/>
    </contour>
  </outline>
</glyph>
<glyph name="uni0662" format="2">
  <advance width="484"/>
  <unicode hex="0662"/>
  <outline>
    <contour>
      <point x="421" y="701" type="curve" smooth="yes"/>
      <point x="407" y="701"/>
      <point x="391" y="692"/>
      <point x="381" y="677" type="curve" smooth="yes"/>
      <point x="354" y="636"/>
      <point x="323" y="612"/>
      <point x="275" y="612" type="curve" smooth="yes"/>
      <point x="239" y="612"/>
      <point x="194" y="624"/>
      <point x="167" y="653" type="curve"/>
      <point x="158" y="670"/>
      <point x="149" y="685"/>
      <point x="139" y="697" type="curve" smooth="yes"/>
      <point x="128" y="711"/>
      <point x="113" y="717"/>
      <point x="100" y="717" type="curve" smooth="yes"/>
      <point x="70" y="717"/>
      <point x="41" y="696"/>
      <point x="41" y="669" type="curve" smooth="yes"/>
      <point x="41" y="652"/>
      <point x="45" y="639"/>
      <point x="54" y="625" type="curve" smooth="yes"/>
      <point x="120" y="527"/>
      <point x="158" y="404"/>
      <point x="158" y="280" type="curve" smooth="yes"/>
      <point x="158" y="246"/>
      <point x="157" y="223"/>
      <point x="156" y="205" type="curve" smooth="yes"/>
      <point x="155" y="190"/>
      <point x="153" y="174"/>
      <point x="153" y="162" type="curve" smooth="yes"/>
      <point x="153" y="144"/>
      <point x="168" y="132"/>
      <point x="188" y="132" type="curve" smooth="yes"/>
      <point x="210" y="132"/>
      <point x="222" y="143"/>
      <point x="232" y="162" type="curve" smooth="yes"/>
      <point x="244" y="185"/>
      <point x="251" y="240"/>
      <point x="251" y="290" type="curve" smooth="yes"/>
      <point x="251" y="372"/>
      <point x="232" y="478"/>
      <point x="203" y="565" type="curve"/>
      <point x="234" y="541"/>
      <point x="268" y="532"/>
      <point x="306" y="532" type="curve" smooth="yes"/>
      <point x="357" y="532"/>
      <point x="401" y="554"/>
      <point x="437" y="603" type="curve" smooth="yes"/>
      <point x="448" y="617"/>
      <point x="456" y="631"/>
      <point x="456" y="658" type="curve" smooth="yes"/>
      <point x="456" y="684"/>
      <point x="441" y="701"/>
    </contour>
  </outline>
</glyph>
<glyph name="uni0663" format="2">
  <advance width="552"/>
  <unicode hex="0663"/>
  <outline>
    <contour>
      <point x="206" y="132" type="curve" smooth="yes"/>
      <point x="227" y="132"/>
      <point x="240" y="143"/>
      <point x="249" y="162" type="curve" smooth="yes"/>
      <point x="260" y="185"/>
      <point x="268" y="240"/>
      <point x="268" y="293" type="curve" smooth="yes"/>
      <point x="268" y="363"/>
      <point x="252" y="445"/>
      <point x="229" y="519" type="curve"/>
      <point x="232" y="519"/>
      <point x="233" y="519"/>
      <point x="236" y="519" type="curve" smooth="yes"/>
      <point x="269" y="519"/>
      <point x="292" y="533"/>
      <point x="315" y="557" type="curve"/>
      <point x="336" y="542"/>
      <point x="359" y="537"/>
      <point x="389" y="537" type="curve" smooth="yes"/>
      <point x="440" y="537"/>
      <point x="476" y="576"/>
      <point x="501" y="633" type="curve" smooth="yes"/>
      <point x="509" y="651"/>
      <point x="515" y="670"/>
      <point x="515" y="681" type="curve" smooth="yes"/>
      <point x="515" y="708"/>
      <point x="491" y="724"/>
      <point x="472" y="724" type="curve" smooth="yes"/>
      <point x="454" y="724"/>
      <point x="443" y="712"/>
      <point x="434" y="683" type="curve" smooth="yes"/>
      <point x="419" y="637"/>
      <point x="397" y="601"/>
      <point x="365" y="601" type="curve" smooth="yes"/>
      <point x="360" y="601"/>
      <point x="354" y="602"/>
      <point x="348" y="604" type="curve"/>
      <point x="352" y="610"/>
      <point x="357" y="620"/>
      <point x="362" y="631" type="curve" smooth="yes"/>
      <point x="367" y="643"/>
      <point x="372" y="657"/>
      <point x="372" y="675" type="curve" smooth="yes"/>
      <point x="372" y="699"/>
      <point x="349" y="715"/>
      <point x="326" y="715" type="curve" smooth="yes"/>
      <point x="310" y="715"/>
      <point x="294" y="707"/>
      <point x="287" y="686" type="curve" smooth="yes"/>
      <point x="270" y="633"/>
      <point x="251" y="594"/>
      <point x="214" y="594" type="curve" smooth="yes"/>
      <point x="210" y="594"/>
      <point x="206" y="594"/>
      <point x="201" y="595" type="curve"/>
      <point x="183" y="637"/>
      <point x="163" y="672"/>
      <point x="143" y="697" type="curve" smooth="yes"/>
      <point x="130" y="714"/>
      <point x="116" y="718"/>
      <point x="98" y="718" type="curve" smooth="yes"/>
      <point x="72" y="718"/>
      <point x="40" y="696"/>
      <point x="40" y="669" type="curve" smooth="yes"/>
      <point x="40" y="652"/>
      <point x="44" y="639"/>
      <point x="58" y="621" type="curve" smooth="yes"/>
      <point x="132" y="527"/>
      <point x="176" y="398"/>
      <point x="176" y="280" type="curve" smooth="yes"/>
      <point x="176" y="250"/>
      <point x="175" y="223"/>
      <point x="173" y="205" type="curve" smooth="yes"/>
      <point x="171" y="190"/>
      <point x="170" y="174"/>
      <point x="170" y="162" type="curve" smooth="yes"/>
      <point x="170" y="144"/>
      <point x="186" y="132"/>
    </contour>
  </outline>
</glyph>
<glyph name="uni0664" format="2">
  <advance width="416"/>
  <unicode hex="0664"/>
  <outline>
    <contour>
      <point x="309" y="131" type="curve" smooth="yes"/>
      <point x="367" y="131"/>
      <point x="396" y="148"/>
      <point x="396" y="185" type="curve" smooth="yes"/>
      <point x="396" y="215"/>
      <point x="384" y="230"/>
      <point x="364" y="230" type="curve" smooth="yes"/>
      <point x="340" y="230"/>
      <point x="326" y="226"/>
      <point x="297" y="226" type="curve" smooth="yes"/>
      <point x="232" y="226"/>
      <point x="173" y="248"/>
      <point x="173" y="290" type="curve" smooth="yes"/>
      <point x="173" y="325"/>
      <point x="202" y="365"/>
      <point x="256" y="408" type="curve" smooth="yes"/>
      <point x="279" y="427"/>
      <point x="303" y="439"/>
      <point x="303" y="458" type="curve" smooth="yes"/>
      <point x="303" y="476"/>
      <point x="297" y="486"/>
      <point x="268" y="497" type="curve" smooth="yes"/>
      <point x="234" y="510"/>
      <point x="181" y="533"/>
      <point x="154" y="555" type="curve"/>
      <point x="184" y="579"/>
      <point x="244" y="613"/>
      <point x="291" y="636" type="curve" smooth="yes"/>
      <point x="313" y="647"/>
      <point x="322" y="658"/>
      <point x="322" y="673" type="curve" smooth="yes"/>
      <point x="322" y="691"/>
      <point x="305" y="719"/>
      <point x="280" y="719" type="curve" smooth="yes"/>
      <point x="264" y="719"/>
      <point x="241" y="712"/>
      <point x="211" y="693" type="curve" smooth="yes"/>
      <point x="172" y="669"/>
      <point x="124" y="631"/>
      <point x="84" y="599" type="curve" smooth="yes"/>
      <point x="66" y="584"/>
      <point x="55" y="571"/>
      <point x="55" y="552" type="curve" smooth="yes"/>
      <point x="55" y="537"/>
      <point x="68" y="524"/>
      <point x="80" y="515" type="curve" smooth="yes"/>
      <point x="114" y="490"/>
      <point x="174" y="464"/>
      <point x="200" y="454" type="curve"/>
      <point x="125" y="404"/>
      <point x="68" y="344"/>
      <point x="68" y="273" type="curve" smooth="yes"/>
      <point x="68" y="184"/>
      <point x="192" y="131"/>
    </contour>
  </outline>
</glyph>
<glyph name="uni0665" format="2">
  <advance width="481"/>
  <unicode hex="0665"/>
  <outline>
    <contour>
      <point x="235" y="158" type="curve" smooth="yes"/>
      <point x="379" y="158"/>
      <point x="441" y="240"/>
      <point x="441" y="340" type="curve" smooth="yes"/>
      <point x="441" y="494"/>
      <point x="346" y="674"/>
      <point x="239" y="674" type="curve" smooth="yes"/>
      <point x="149" y="674"/>
      <point x="40" y="483"/>
      <point x="40" y="333" type="curve" smooth="yes"/>
      <point x="40" y="213"/>
      <point x="115" y="158"/>
    </contour>
    <contour>
      <point x="236" y="252" type="curve" smooth="yes"/>
      <point x="165" y="252"/>
      <point x="122" y="283"/>
      <point x="122" y="341" type="curve" smooth="yes"/>
      <point x="122" y="441"/>
      <point x="187" y="579"/>
      <point x="235" y="579" type="curve" smooth="yes"/>
      <point x="305" y="579"/>
      <point x="356" y="443"/>
      <point x="356" y="345" type="curve" smooth="yes"/>
      <point x="356" y="290"/>
      <point x="317" y="252"/>
    </contour>
  </outline>
</glyph>
<glyph name="uni0666" format="2">
  <advance width="489"/>
  <unicode hex="0666"/>
  <outline>
    <contour>
      <point x="400" y="132" type="curve" smooth="yes"/>
      <point x="429" y="132"/>
      <point x="459" y="153"/>
      <point x="459" y="180" type="curve" smooth="yes"/>
      <point x="459" y="197"/>
      <point x="455" y="212"/>
      <point x="444" y="231" type="curve" smooth="yes"/>
      <point x="424" y="265"/>
      <point x="407" y="303"/>
      <point x="394" y="343" type="curve" smooth="yes"/>
      <point x="371" y="415"/>
      <point x="356" y="503"/>
      <point x="356" y="569" type="curve" smooth="yes"/>
      <point x="356" y="599"/>
      <point x="357" y="626"/>
      <point x="359" y="644" type="curve" smooth="yes"/>
      <point x="361" y="659"/>
      <point x="362" y="675"/>
      <point x="362" y="687" type="curve" smooth="yes"/>
      <point x="362" y="705"/>
      <point x="346" y="717"/>
      <point x="326" y="717" type="curve" smooth="yes"/>
      <point x="305" y="717"/>
      <point x="291" y="706"/>
      <point x="281" y="686" type="curve"/>
      <point x="262" y="675"/>
      <point x="231" y="666"/>
      <point x="198" y="666" type="curve" smooth="yes"/>
      <point x="156" y="666"/>
      <point x="124" y="675"/>
      <point x="101" y="686" type="curve" smooth="yes"/>
      <point x="78" y="697"/>
      <point x="62" y="702"/>
      <point x="48" y="702" type="curve" smooth="yes"/>
      <point x="29" y="702"/>
      <point x="14" y="688"/>
      <point x="14" y="660" type="curve" smooth="yes"/>
      <point x="14" y="633"/>
      <point x="24" y="614"/>
      <point x="48" y="602" type="curve" smooth="yes"/>
      <point x="75" y="589"/>
      <point x="120" y="580"/>
      <point x="165" y="580" type="curve" smooth="yes"/>
      <point x="200" y="580"/>
      <point x="234" y="583"/>
      <point x="264" y="593" type="curve"/>
      <point x="263" y="579"/>
      <point x="263" y="570"/>
      <point x="263" y="562" type="curve" smooth="yes"/>
      <point x="263" y="485"/>
      <point x="278" y="370"/>
      <point x="305" y="276" type="curve" smooth="yes"/>
      <point x="319" y="226"/>
      <point x="337" y="182"/>
      <point x="357" y="154" type="curve" smooth="yes"/>
      <point x="369" y="137"/>
      <point x="386" y="132"/>
    </contour>
  </outline>
</glyph>
<glyph name="uni0667" format="2">
  <advance width="480"/>
  <unicode hex="0667"/>
  <outline>
    <contour>
      <point x="302" y="202" type="curve" smooth="yes"/>
      <point x="343" y="356"/>
      <point x="407" y="525"/>
      <point x="451" y="613" type="curve" smooth="yes"/>
      <point x="457" y="625"/>
      <point x="464" y="640"/>
      <point x="464" y="651" type="curve" smooth="yes"/>
      <point x="464" y="667"/>
      <point x="441" y="688"/>
      <point x="400" y="688" type="curve" smooth="yes"/>
      <point x="380" y="688"/>
      <point x="367" y="673"/>
      <point x="359" y="655" type="curve" smooth="yes"/>
      <point x="317" y="567"/>
      <point x="275" y="436"/>
      <point x="245" y="278" type="curve"/>
      <point x="201" y="483"/>
      <point x="146" y="635"/>
      <point x="119" y="666" type="curve" smooth="yes"/>
      <point x="109" y="677"/>
      <point x="98" y="683"/>
      <point x="76" y="683" type="curve" smooth="yes"/>
      <point x="45" y="683"/>
      <point x="16" y="665"/>
      <point x="16" y="647" type="curve" smooth="yes"/>
      <point x="16" y="637"/>
      <point x="20" y="631"/>
      <point x="28" y="618" type="curve" smooth="yes"/>
      <point x="56" y="572"/>
      <point x="129" y="406"/>
      <point x="185" y="195" type="curve" smooth="yes"/>
      <point x="194" y="161"/>
      <point x="213" y="145"/>
      <point x="238" y="145" type="curve" smooth="yes"/>
      <point x="271" y="145"/>
      <point x="290" y="155"/>
    </contour>
  </outline>
</glyph>
<glyph name="uni0668" format="2">
  <advance width="480"/>
  <unicode hex="0668"/>
  <outline>
    <contour>
      <point x="80" y="145" type="curve" smooth="yes"/>
      <point x="100" y="145"/>
      <point x="114" y="161"/>
      <point x="122" y="179" type="curve" smooth="yes"/>
      <point x="163" y="267"/>
      <point x="205" y="398"/>
      <point x="236" y="556" type="curve"/>
      <point x="279" y="351"/>
      <point x="335" y="199"/>
      <point x="362" y="167" type="curve" smooth="yes"/>
      <point x="372" y="155"/>
      <point x="382" y="151"/>
      <point x="405" y="151" type="curve" smooth="yes"/>
      <point x="436" y="151"/>
      <point x="464" y="169"/>
      <point x="464" y="187" type="curve" smooth="yes"/>
      <point x="464" y="197"/>
      <point x="460" y="204"/>
      <point x="453" y="216" type="curve" smooth="yes"/>
      <point x="423" y="264"/>
      <point x="353" y="423"/>
      <point x="295" y="638" type="curve" smooth="yes"/>
      <point x="285" y="676"/>
      <point x="268" y="688"/>
      <point x="242" y="688" type="curve" smooth="yes"/>
      <point x="208" y="688"/>
      <point x="189" y="676"/>
      <point x="176" y="625" type="curve" smooth="yes"/>
      <point x="138" y="478"/>
      <point x="78" y="307"/>
      <point x="29" y="220" type="curve" smooth="yes"/>
      <point x="22" y="208"/>
      <point x="16" y="192"/>
      <point x="16" y="183" type="curve" smooth="yes"/>
      <point x="16" y="167"/>
      <point x="39" y="145"/>
    </contour>
  </outline>
</glyph>
<glyph name="uni0669" format="2">
  <advance width="485"/>
  <unicode hex="0669"/>
  <outline>
    <contour>
      <point x="413" y="128" type="curve" smooth="yes"/>
      <point x="444" y="128"/>
      <point x="465" y="143"/>
      <point x="465" y="174" type="curve" smooth="yes"/>
      <point x="465" y="181"/>
      <point x="465" y="190"/>
      <point x="459" y="198" type="curve" smooth="yes"/>
      <point x="445" y="217"/>
      <point x="433" y="239"/>
      <point x="421" y="272" type="curve" smooth="yes"/>
      <point x="400" y="330"/>
      <point x="386" y="377"/>
      <point x="374" y="487" type="curve" smooth="yes"/>
      <point x="355" y="663"/>
      <point x="253" y="706"/>
      <point x="181" y="706" type="curve" smooth="yes"/>
      <point x="104" y="706"/>
      <point x="30" y="646"/>
      <point x="30" y="551" type="curve" smooth="yes"/>
      <point x="30" y="449"/>
      <point x="104" y="389"/>
      <point x="191" y="389" type="curve" smooth="yes"/>
      <point x="236" y="389"/>
      <point x="266" y="400"/>
      <point x="291" y="415" type="curve"/>
      <point x="296" y="357"/>
      <point x="306" y="293"/>
      <point x="316" y="251" type="curve" smooth="yes"/>
      <point x="326" y="209"/>
      <point x="349" y="164"/>
      <point x="366" y="149" type="curve" smooth="yes"/>
      <point x="378" y="138"/>
      <point x="393" y="128"/>
    </contour>
    <contour>
      <point x="205" y="468" type="curve" smooth="yes"/>
      <point x="147" y="468"/>
      <point x="112" y="501"/>
      <point x="112" y="550" type="curve" smooth="yes"/>
      <point x="112" y="593"/>
      <point x="138" y="629"/>
      <point x="178" y="629" type="curve" smooth="yes"/>
      <point x="210" y="629"/>
      <point x="271" y="611"/>
      <point x="280" y="487" type="curve"/>
      <point x="266" y="478"/>
      <point x="233" y="468"/>
    </contour>
  </outline>
</glyph>
<glyph name="uni066A" format="2">
  <advance width="543"/>
  <unicode hex="066A"/>
  <outline>
    <contour>
      <point x="176" y="157" type="curve" smooth="yes"/>
      <point x="188" y="157"/>
      <point x="199" y="164"/>
      <point x="203" y="177" type="curve" smooth="yes"/>
      <point x="211" y="200"/>
      <point x="218" y="244"/>
      <point x="237" y="290" type="curve" smooth="yes"/>
      <point x="257" y="338"/>
      <point x="289" y="401"/>
      <point x="322" y="453" type="curve" smooth="yes"/>
      <point x="359" y="511"/>
      <point x="400" y="561"/>
      <point x="441" y="595" type="curve" smooth="yes"/>
      <point x="456" y="608"/>
      <point x="470" y="625"/>
      <point x="470" y="635" type="curve" smooth="yes"/>
      <point x="470" y="649"/>
      <point x="462" y="666"/>
      <point x="458" y="672" type="curve" smooth="yes"/>
      <point x="443" y="695"/>
      <point x="423" y="702"/>
      <point x="403" y="703" type="curve"/>
      <point x="382" y="693"/>
      <point x="364" y="674"/>
      <point x="337" y="643" type="curve" smooth="yes"/>
      <point x="297" y="598"/>
      <point x="250" y="531"/>
      <point x="216" y="465" type="curve" smooth="yes"/>
      <point x="174" y="384"/>
      <point x="126" y="271"/>
      <point x="126" y="214" type="curve" smooth="yes"/>
      <point x="126" y="182"/>
      <point x="147" y="157"/>
    </contour>
    <contour>
      <point x="121" y="534" type="curve" smooth="yes"/>
      <point x="143" y="534"/>
      <point x="184" y="550"/>
      <point x="184" y="576" type="curve" smooth="yes"/>
      <point x="184" y="625"/>
      <point x="156" y="686"/>
      <point x="124" y="686" type="curve" smooth="yes"/>
      <point x="94" y="686"/>
      <point x="56" y="668"/>
      <point x="56" y="636" type="curve" smooth="yes"/>
      <point x="56" y="596"/>
      <point x="92" y="534"/>
    </contour>
    <contour>
      <point x="411" y="214" type="curve" smooth="yes"/>
      <point x="434" y="214"/>
      <point x="474" y="230"/>
      <point x="474" y="256" type="curve" smooth="yes"/>
      <point x="474" y="305"/>
      <point x="447" y="366"/>
      <point x="414" y="366" type="curve" smooth="yes"/>
      <point x="385" y="366"/>
      <point x="347" y="348"/>
      <point x="347" y="316" type="curve" smooth="yes"/>
      <point x="347" y="276"/>
      <point x="383" y="214"/>
    </contour>
  </outline>
</glyph>
<glyph name="uni066B" format="2">
  <advance width="302"/>
  <unicode hex="066B"/>
  <outline>
    <contour>
      <point x="97" y="19" type="curve" smooth="yes"/>
      <point x="114" y="19"/>
      <point x="128" y="33"/>
      <point x="140" y="42" type="curve" smooth="yes"/>
      <point x="171" y="65"/>
      <point x="241" y="160"/>
      <point x="241" y="213" type="curve" smooth="yes"/>
      <point x="241" y="259"/>
      <point x="212" y="283"/>
      <point x="177" y="283" type="curve" smooth="yes"/>
      <point x="131" y="283"/>
      <point x="90" y="243"/>
      <point x="90" y="200" type="curve" smooth="yes"/>
      <point x="90" y="169"/>
      <point x="113" y="144"/>
      <point x="146" y="142" type="curve"/>
      <point x="133" y="110"/>
      <point x="109" y="88"/>
      <point x="87" y="66" type="curve" smooth="yes"/>
      <point x="78" y="57"/>
      <point x="73" y="52"/>
      <point x="73" y="41" type="curve" smooth="yes"/>
      <point x="73" y="37"/>
      <point x="75" y="19"/>
    </contour>
  </outline>
</glyph>
<glyph name="uni066C" format="2">
  <advance width="302"/>
  <unicode hex="066C"/>
  <outline>
    <contour>
      <point x="205" y="400" type="curve" smooth="yes"/>
      <point x="188" y="400"/>
      <point x="174" y="386"/>
      <point x="162" y="377" type="curve" smooth="yes"/>
      <point x="131" y="354"/>
      <point x="61" y="259"/>
      <point x="61" y="206" type="curve" smooth="yes"/>
      <point x="61" y="160"/>
      <point x="90" y="136"/>
      <point x="125" y="136" type="curve" smooth="yes"/>
      <point x="171" y="136"/>
      <point x="212" y="176"/>
      <point x="212" y="219" type="curve" smooth="yes"/>
      <point x="212" y="250"/>
      <point x="189" y="275"/>
      <point x="156" y="277" type="curve"/>
      <point x="169" y="309"/>
      <point x="193" y="331"/>
      <point x="215" y="353" type="curve" smooth="yes"/>
      <point x="224" y="362"/>
      <point x="229" y="367"/>
      <point x="229" y="378" type="curve" smooth="yes"/>
      <point x="229" y="382"/>
      <point x="227" y="400"/>
    </contour>
  </outline>
</glyph>
<glyph name="uni0781" format="2">
  <advance width="678"/>
  <unicode hex="0781"/>
  <outline>
    <contour>
      <point x="-1" y="-78" type="curve" smooth="yes"/>
      <point x="17" y="-78"/>
      <point x="74" y="-61"/>
      <point x="144" y="-10" type="curve" smooth="yes"/>
      <point x="210" y="38"/>
      <point x="286" y="113"/>
      <point x="353" y="196" type="curve"/>
      <point x="358" y="195"/>
      <point x="364" y="195"/>
      <point x="370" y="195" type="curve" smooth="yes"/>
      <point x="472" y="195"/>
      <point x="564" y="233"/>
      <point x="617" y="279" type="curve" smooth="yes"/>
      <point x="647" y="305"/>
      <point x="664" y="333"/>
      <point x="664" y="358" type="curve" smooth="yes"/>
      <point x="664" y="370"/>
      <point x="655" y="391"/>
      <point x="628" y="391" type="curve" smooth="yes"/>
      <point x="605" y="391"/>
      <point x="573" y="352"/>
      <point x="557" y="341" type="curve" smooth="yes"/>
      <point x="515" y="312"/>
      <point x="479" y="298"/>
      <point x="438" y="298" type="curve"/>
      <point x="420" y="329"/>
      <point x="391" y="352"/>
      <point x="352" y="352" type="curve" smooth="yes"/>
      <point x="289" y="352"/>
      <point x="256" y="317"/>
      <point x="256" y="274" type="curve" smooth="yes"/>
      <point x="256" y="258"/>
      <point x="262" y="244"/>
      <point x="273" y="231" type="curve"/>
      <point x="228" y="181"/>
      <point x="170" y="127"/>
      <point x="97" y="80" type="curve" smooth="yes"/>
      <point x="62" y="57"/>
      <point x="20" y="43"/>
      <point x="-18" y="31" type="curve" smooth="yes"/>
      <point x="-45" y="22"/>
      <point x="-59" y="4"/>
      <point x="-59" y="-21" type="curve" smooth="yes"/>
      <point x="-59" y="-57"/>
      <point x="-39" y="-78"/>
    </contour>
  </outline>
</glyph>
<glyph name="uni0782" format="2">
  <advance width="809"/>
  <unicode hex="0782"/>
  <outline>
    <contour>
      <point x="-1" y="-78" type="curve" smooth="yes"/>
      <point x="17" y="-78"/>
      <point x="71" y="-61"/>
      <point x="144" y="-10" type="curve" smooth="yes"/>
      <point x="209" y="35"/>
      <point x="287" y="114"/>
      <point x="353" y="195" type="curve"/>
      <point x="358" y="195"/>
      <point x="362" y="195"/>
      <point x="367" y="195" type="curve" smooth="yes"/>
      <point x="427" y="195"/>
      <point x="469" y="206"/>
      <point x="503" y="218" type="curve"/>
      <point x="533" y="197"/>
      <point x="562" y="187"/>
      <point x="596" y="187" type="curve" smooth="yes"/>
      <point x="670" y="187"/>
      <point x="737" y="232"/>
      <point x="771" y="284" type="curve" smooth="yes"/>
      <point x="786" y="306"/>
      <point x="794" y="329"/>
      <point x="794" y="350" type="curve" smooth="yes"/>
      <point x="794" y="372"/>
      <point x="787" y="391"/>
      <point x="759" y="391" type="curve" smooth="yes"/>
      <point x="737" y="391"/>
      <point x="724" y="371"/>
      <point x="702" y="344" type="curve" smooth="yes"/>
      <point x="663" y="296"/>
      <point x="637" y="271"/>
      <point x="610" y="271" type="curve" smooth="yes"/>
      <point x="603" y="271"/>
      <point x="596" y="272"/>
      <point x="587" y="274" type="curve"/>
      <point x="593" y="285"/>
      <point x="599" y="308"/>
      <point x="599" y="325" type="curve" smooth="yes"/>
      <point x="599" y="355"/>
      <point x="590" y="376"/>
      <point x="559" y="376" type="curve" smooth="yes"/>
      <point x="542" y="376"/>
      <point x="528" y="362"/>
      <point x="511" y="341" type="curve" smooth="yes"/>
      <point x="494" y="321"/>
      <point x="476" y="301"/>
      <point x="446" y="297" type="curve"/>
      <point x="428" y="329"/>
      <point x="393" y="352"/>
      <point x="354" y="352" type="curve" smooth="yes"/>
      <point x="292" y="352"/>
      <point x="256" y="316"/>
      <point x="256" y="273" type="curve" smooth="yes"/>
      <point x="256" y="257"/>
      <point x="262" y="243"/>
      <point x="273" y="231" type="curve"/>
      <point x="187" y="133"/>
      <point x="101" y="68"/>
      <point x="-18" y="31" type="curve" smooth="yes"/>
      <point x="-45" y="23"/>
      <point x="-59" y="4"/>
      <point x="-59" y="-21" type="curve" smooth="yes"/>
      <point x="-59" y="-57"/>
      <point x="-39" y="-78"/>
    </contour>
  </outline>
</glyph>
<glyph name="uni0783" format="2">
  <advance width="649"/>
  <unicode hex="0783"/>
  <outline>
    <contour>
      <point x="3" y="-78" type="curve" smooth="yes"/>
      <point x="25" y="-78"/>
      <point x="86" y="-56"/>
      <point x="150" y="-19" type="curve" smooth="yes"/>
      <point x="231" y="28"/>
      <point x="308" y="109"/>
      <point x="389" y="178" type="curve"/>
      <point x="434" y="163"/>
      <point x="483" y="154"/>
      <point x="524" y="154" type="curve" smooth="yes"/>
      <point x="568" y="154"/>
      <point x="604" y="166"/>
      <point x="604" y="193" type="curve" smooth="yes"/>
      <point x="604" y="223"/>
      <point x="582" y="238"/>
      <point x="544" y="238" type="curve" smooth="yes"/>
      <point x="517" y="238"/>
      <point x="495" y="242"/>
      <point x="477" y="248" type="curve"/>
      <point x="528" y="289"/>
      <point x="544" y="303"/>
      <point x="576" y="320" type="curve" smooth="yes"/>
      <point x="606" y="336"/>
      <point x="634" y="355"/>
      <point x="634" y="372" type="curve" smooth="yes"/>
      <point x="634" y="401"/>
      <point x="609" y="405"/>
      <point x="595" y="405" type="curve" smooth="yes"/>
      <point x="548" y="405"/>
      <point x="480" y="368"/>
      <point x="401" y="303" type="curve"/>
      <point x="382" y="324"/>
      <point x="360" y="340"/>
      <point x="323" y="340" type="curve" smooth="yes"/>
      <point x="279" y="340"/>
      <point x="265" y="307"/>
      <point x="265" y="284" type="curve" smooth="yes"/>
      <point x="265" y="259"/>
      <point x="281" y="237"/>
      <point x="307" y="218" type="curve"/>
      <point x="243" y="159"/>
      <point x="176" y="108"/>
      <point x="93" y="70" type="curve" smooth="yes"/>
      <point x="61" y="55"/>
      <point x="25" y="42"/>
      <point x="-13" y="32" type="curve" smooth="yes"/>
      <point x="-42" y="24"/>
      <point x="-59" y="8"/>
      <point x="-59" y="-21" type="curve" smooth="yes"/>
      <point x="-59" y="-55"/>
      <point x="-38" y="-78"/>
    </contour>
  </outline>
</glyph>
<glyph name="uni0784" format="2">
  <advance width="712"/>
  <unicode hex="0784"/>
  <outline>
    <contour>
      <point x="273" y="-10" type="curve" smooth="yes"/>
      <point x="494" y="-10"/>
      <point x="653" y="120"/>
      <point x="653" y="264" type="curve" smooth="yes"/>
      <point x="653" y="313"/>
      <point x="618" y="361"/>
      <point x="544" y="361" type="curve" smooth="yes"/>
      <point x="483" y="361"/>
      <point x="426" y="336"/>
      <point x="375" y="299" type="curve"/>
      <point x="346" y="318"/>
      <point x="312" y="331"/>
      <point x="266" y="331" type="curve" smooth="yes"/>
      <point x="139" y="331"/>
      <point x="59" y="254"/>
      <point x="59" y="146" type="curve" smooth="yes"/>
      <point x="59" y="49"/>
      <point x="151" y="-10"/>
    </contour>
    <contour>
      <point x="199" y="89" type="curve"/>
      <point x="175" y="100"/>
      <point x="156" y="120"/>
      <point x="156" y="155" type="curve" smooth="yes"/>
      <point x="156" y="202"/>
      <point x="199" y="243"/>
      <point x="260" y="243" type="curve" smooth="yes"/>
      <point x="274" y="243"/>
      <point x="289" y="241"/>
      <point x="304" y="236" type="curve"/>
      <point x="257" y="187"/>
      <point x="222" y="130"/>
    </contour>
    <contour>
      <point x="291" y="78" type="curve"/>
      <point x="337" y="170"/>
      <point x="446" y="273"/>
      <point x="522" y="273" type="curve" smooth="yes"/>
      <point x="544" y="273"/>
      <point x="556" y="264"/>
      <point x="556" y="244" type="curve" smooth="yes"/>
      <point x="556" y="189"/>
      <point x="478" y="88"/>
    </contour>
  </outline>
</glyph>
<glyph name="uni0785" format="2">
  <advance width="545"/>
  <unicode hex="0785"/>
  <outline>
    <contour>
      <point x="0" y="-78" type="curve" smooth="yes"/>
      <point x="72" y="-78"/>
      <point x="208" y="2"/>
      <point x="333" y="92" type="curve" smooth="yes"/>
      <point x="412" y="149"/>
      <point x="477" y="203"/>
      <point x="509" y="246" type="curve" smooth="yes"/>
      <point x="523" y="265"/>
      <point x="531" y="282"/>
      <point x="531" y="296" type="curve" smooth="yes"/>
      <point x="531" y="309"/>
      <point x="530" y="327"/>
      <point x="501" y="327" type="curve" smooth="yes"/>
      <point x="489" y="327"/>
      <point x="474" y="316"/>
      <point x="455" y="299" type="curve" smooth="yes"/>
      <point x="434" y="281"/>
      <point x="408" y="253"/>
      <point x="378" y="228" type="curve"/>
      <point x="347" y="231"/>
      <point x="323" y="246"/>
      <point x="323" y="277" type="curve" smooth="yes"/>
      <point x="323" y="302"/>
      <point x="333" y="318"/>
      <point x="343" y="328" type="curve" smooth="yes"/>
      <point x="358" y="343"/>
      <point x="374" y="355"/>
      <point x="374" y="370" type="curve" smooth="yes"/>
      <point x="374" y="396"/>
      <point x="352" y="405"/>
      <point x="330" y="405" type="curve" smooth="yes"/>
      <point x="313" y="405"/>
      <point x="294" y="398"/>
      <point x="279" y="386" type="curve" smooth="yes"/>
      <point x="250" y="363"/>
      <point x="229" y="324"/>
      <point x="229" y="280" type="curve" smooth="yes"/>
      <point x="229" y="227"/>
      <point x="257" y="187"/>
      <point x="298" y="169" type="curve"/>
      <point x="259" y="144"/>
      <point x="212" y="116"/>
      <point x="163" y="92" type="curve" smooth="yes"/>
      <point x="104" y="63"/>
      <point x="44" y="41"/>
      <point x="-4" y="34" type="curve"/>
      <point x="-34" y="30"/>
      <point x="-59" y="10"/>
      <point x="-59" y="-20" type="curve" smooth="yes"/>
      <point x="-59" y="-55"/>
      <point x="-39" y="-78"/>
    </contour>
  </outline>
</glyph>
<glyph name="uni0786" format="2">
  <advance width="550"/>
  <unicode hex="0786"/>
  <outline>
    <contour>
      <point x="78" y="-10" type="curve" smooth="yes"/>
      <point x="124" y="-10"/>
      <point x="217" y="24"/>
      <point x="295" y="79" type="curve" smooth="yes"/>
      <point x="355" y="121"/>
      <point x="453" y="197"/>
      <point x="498" y="262" type="curve" smooth="yes"/>
      <point x="513" y="283"/>
      <point x="521" y="303"/>
      <point x="521" y="319" type="curve" smooth="yes"/>
      <point x="521" y="344"/>
      <point x="510" y="361"/>
      <point x="484" y="361" type="curve" smooth="yes"/>
      <point x="460" y="361"/>
      <point x="441" y="346"/>
      <point x="425" y="321" type="curve" smooth="yes"/>
      <point x="404" y="289"/>
      <point x="329" y="195"/>
      <point x="242" y="142" type="curve" smooth="yes"/>
      <point x="223" y="130"/>
      <point x="202" y="120"/>
      <point x="182" y="114" type="curve"/>
      <point x="233" y="209"/>
      <point x="247" y="241"/>
      <point x="247" y="268" type="curve" smooth="yes"/>
      <point x="247" y="309"/>
      <point x="231" y="327"/>
      <point x="196" y="327" type="curve" smooth="yes"/>
      <point x="149" y="327"/>
      <point x="140" y="286"/>
      <point x="136" y="261" type="curve" smooth="yes"/>
      <point x="126" y="202"/>
      <point x="117" y="175"/>
      <point x="50" y="76" type="curve" smooth="yes"/>
      <point x="34" y="53"/>
      <point x="29" y="44"/>
      <point x="29" y="27" type="curve" smooth="yes"/>
      <point x="29" y="8"/>
      <point x="50" y="-10"/>
    </contour>
  </outline>
</glyph>
<glyph name="uni0787" format="2">
  <advance width="533"/>
  <unicode hex="0787"/>
  <outline>
    <contour>
      <point x="3" y="-10" type="curve" smooth="yes"/>
      <point x="32" y="-10"/>
      <point x="83" y="13"/>
      <point x="141" y="49" type="curve" smooth="yes"/>
      <point x="222" y="99"/>
      <point x="317" y="176"/>
      <point x="384" y="257" type="curve"/>
      <point x="379" y="183"/>
      <point x="355" y="142"/>
      <point x="316" y="89" type="curve" smooth="yes"/>
      <point x="300" y="67"/>
      <point x="293" y="56"/>
      <point x="293" y="38" type="curve" smooth="yes"/>
      <point x="293" y="14"/>
      <point x="311" y="-1"/>
      <point x="339" y="-1" type="curve" smooth="yes"/>
      <point x="358" y="-1"/>
      <point x="378" y="12"/>
      <point x="389" y="26" type="curve" smooth="yes"/>
      <point x="441" y="90"/>
      <point x="474" y="171"/>
      <point x="474" y="266" type="curve" smooth="yes"/>
      <point x="474" y="318"/>
      <point x="461" y="361"/>
      <point x="409" y="361" type="curve" smooth="yes"/>
      <point x="364" y="361"/>
      <point x="318" y="312"/>
      <point x="296" y="288" type="curve" smooth="yes"/>
      <point x="236" y="224"/>
      <point x="175" y="177"/>
      <point x="101" y="141" type="curve" smooth="yes"/>
      <point x="66" y="124"/>
      <point x="29" y="110"/>
      <point x="-13" y="97" type="curve" smooth="yes"/>
      <point x="-42" y="88"/>
      <point x="-59" y="71"/>
      <point x="-59" y="42" type="curve" smooth="yes"/>
      <point x="-59" y="9"/>
      <point x="-38" y="-10"/>
    </contour>
  </outline>
</glyph>
<glyph name="uni0788" format="2">
  <advance width="538"/>
  <unicode hex="0788"/>
  <outline>
    <contour>
      <point x="3" y="-78" type="curve" smooth="yes"/>
      <point x="29" y="-78"/>
      <point x="126" y="-38"/>
      <point x="187" y="2" type="curve" smooth="yes"/>
      <point x="264" y="52"/>
      <point x="370" y="137"/>
      <point x="429" y="202" type="curve" smooth="yes"/>
      <point x="464" y="241"/>
      <point x="483" y="284"/>
      <point x="483" y="329" type="curve" smooth="yes"/>
      <point x="483" y="382"/>
      <point x="442" y="405"/>
      <point x="383" y="405" type="curve" smooth="yes"/>
      <point x="276" y="405"/>
      <point x="175" y="318"/>
      <point x="175" y="234" type="curve" smooth="yes"/>
      <point x="175" y="197"/>
      <point x="194" y="165"/>
      <point x="229" y="144" type="curve"/>
      <point x="192" y="121"/>
      <point x="141" y="93"/>
      <point x="90" y="69" type="curve" smooth="yes"/>
      <point x="55" y="53"/>
      <point x="19" y="39"/>
      <point x="-13" y="32" type="curve" smooth="yes"/>
      <point x="-43" y="25"/>
      <point x="-59" y="6"/>
      <point x="-59" y="-23" type="curve" smooth="yes"/>
      <point x="-59" y="-56"/>
      <point x="-38" y="-78"/>
    </contour>
    <contour>
      <point x="318" y="206" type="curve"/>
      <point x="292" y="208"/>
      <point x="268" y="215"/>
      <point x="268" y="241" type="curve" smooth="yes"/>
      <point x="268" y="284"/>
      <point x="324" y="325"/>
      <point x="364" y="325" type="curve" smooth="yes"/>
      <point x="387" y="325"/>
      <point x="392" y="316"/>
      <point x="392" y="305" type="curve" smooth="yes"/>
      <point x="392" y="271"/>
      <point x="354" y="234"/>
    </contour>
  </outline>
</glyph>
<glyph name="uni0789" format="2">
  <advance width="518"/>
  <unicode hex="0789"/>
  <outline>
    <contour>
      <point x="22" y="-20" type="curve" smooth="yes"/>
      <point x="36" y="-20"/>
      <point x="62" y="-14"/>
      <point x="93" y="-4" type="curve" smooth="yes"/>
      <point x="134" y="9"/>
      <point x="181" y="29"/>
      <point x="218" y="50" type="curve" smooth="yes"/>
      <point x="289" y="90"/>
      <point x="395" y="160"/>
      <point x="447" y="231" type="curve" smooth="yes"/>
      <point x="467" y="258"/>
      <point x="479" y="284"/>
      <point x="479" y="309" type="curve" smooth="yes"/>
      <point x="479" y="377"/>
      <point x="391" y="391"/>
      <point x="303" y="391" type="curve" smooth="yes"/>
      <point x="245" y="391"/>
      <point x="199" y="386"/>
      <point x="167" y="377" type="curve" smooth="yes"/>
      <point x="124" y="365"/>
      <point x="103" y="346"/>
      <point x="103" y="323" type="curve" smooth="yes"/>
      <point x="103" y="302"/>
      <point x="117" y="280"/>
      <point x="146" y="280" type="curve" smooth="yes"/>
      <point x="170" y="280"/>
      <point x="194" y="289"/>
      <point x="223" y="297" type="curve" smooth="yes"/>
      <point x="248" y="304"/>
      <point x="276" y="310"/>
      <point x="310" y="310" type="curve" smooth="yes"/>
      <point x="337" y="310"/>
      <point x="364" y="305"/>
      <point x="364" y="295" type="curve" smooth="yes"/>
      <point x="364" y="283"/>
      <point x="361" y="268"/>
      <point x="331" y="238" type="curve" smooth="yes"/>
      <point x="252" y="161"/>
      <point x="166" y="126"/>
      <point x="73" y="100" type="curve" smooth="yes"/>
      <point x="51" y="94"/>
      <point x="29" y="88"/>
      <point x="6" y="83" type="curve" smooth="yes"/>
      <point x="-24" y="76"/>
      <point x="-39" y="58"/>
      <point x="-39" y="30" type="curve" smooth="yes"/>
      <point x="-39" y="-3"/>
      <point x="-19" y="-20"/>
    </contour>
  </outline>
</glyph>
<glyph name="uni078A" format="2">
  <advance width="449"/>
  <unicode hex="078A"/>
  <outline>
    <contour>
      <point x="3" y="-78" type="curve" smooth="yes"/>
      <point x="24" y="-78"/>
      <point x="88" y="-55"/>
      <point x="150" y="-19" type="curve" smooth="yes"/>
      <point x="209" y="15"/>
      <point x="367" y="117"/>
      <point x="367" y="180" type="curve" smooth="yes"/>
      <point x="367" y="202"/>
      <point x="354" y="210"/>
      <point x="331" y="222" type="curve"/>
      <point x="348" y="231"/>
      <point x="366" y="241"/>
      <point x="381" y="253" type="curve" smooth="yes"/>
      <point x="406" y="272"/>
      <point x="425" y="294"/>
      <point x="425" y="321" type="curve" smooth="yes"/>
      <point x="425" y="352"/>
      <point x="389" y="362"/>
      <point x="346" y="374" type="curve"/>
      <point x="367" y="384"/>
      <point x="383" y="395"/>
      <point x="395" y="404" type="curve" smooth="yes"/>
      <point x="410" y="416"/>
      <point x="418" y="429"/>
      <point x="418" y="439" type="curve" smooth="yes"/>
      <point x="418" y="461"/>
      <point x="401" y="479"/>
      <point x="380" y="479" type="curve" smooth="yes"/>
      <point x="355" y="479"/>
      <point x="343" y="458"/>
      <point x="299" y="430" type="curve" smooth="yes"/>
      <point x="248" y="398"/>
      <point x="223" y="396"/>
      <point x="223" y="365" type="curve" smooth="yes"/>
      <point x="223" y="346"/>
      <point x="233" y="337"/>
      <point x="253" y="330" type="curve" smooth="yes"/>
      <point x="295" y="315"/>
      <point x="315" y="318"/>
      <point x="315" y="306" type="curve" smooth="yes"/>
      <point x="315" y="299"/>
      <point x="293" y="289"/>
      <point x="268" y="277" type="curve" smooth="yes"/>
      <point x="237" y="262"/>
      <point x="203" y="244"/>
      <point x="203" y="222" type="curve" smooth="yes"/>
      <point x="203" y="204"/>
      <point x="212" y="194"/>
      <point x="222" y="187" type="curve" smooth="yes"/>
      <point x="236" y="177"/>
      <point x="253" y="173"/>
      <point x="253" y="165" type="curve" smooth="yes"/>
      <point x="253" y="140"/>
      <point x="211" y="109"/>
      <point x="123" y="72" type="curve" smooth="yes"/>
      <point x="84" y="56"/>
      <point x="46" y="47"/>
      <point x="-2" y="35" type="curve" smooth="yes"/>
      <point x="-31" y="28"/>
      <point x="-59" y="8"/>
      <point x="-59" y="-21" type="curve" smooth="yes"/>
      <point x="-59" y="-55"/>
      <point x="-38" y="-78"/>
    </contour>
  </outline>
</glyph>
<glyph name="uni078C" format="2">
  <advance width="649"/>
  <unicode hex="078C"/>
  <outline>
    <contour>
      <point x="91" y="-44" type="curve" smooth="yes"/>
      <point x="173" y="-44"/>
      <point x="296" y="5"/>
      <point x="296" y="81" type="curve" smooth="yes"/>
      <point x="296" y="106"/>
      <point x="281" y="125"/>
      <point x="266" y="140" type="curve" smooth="yes"/>
      <point x="252" y="154"/>
      <point x="239" y="164"/>
      <point x="239" y="171" type="curve" smooth="yes"/>
      <point x="239" y="181"/>
      <point x="257" y="194"/>
      <point x="278" y="208" type="curve"/>
      <point x="322" y="168"/>
      <point x="380" y="153"/>
      <point x="415" y="153" type="curve" smooth="yes"/>
      <point x="492" y="153"/>
      <point x="587" y="205"/>
      <point x="587" y="300" type="curve" smooth="yes"/>
      <point x="587" y="357"/>
      <point x="560" y="391"/>
      <point x="499" y="391" type="curve" smooth="yes"/>
      <point x="372" y="391"/>
      <point x="140" y="241"/>
      <point x="140" y="151" type="curve" smooth="yes"/>
      <point x="140" y="137"/>
      <point x="157" y="127"/>
      <point x="172" y="116" type="curve" smooth="yes"/>
      <point x="185" y="106"/>
      <point x="196" y="97"/>
      <point x="196" y="84" type="curve" smooth="yes"/>
      <point x="196" y="55"/>
      <point x="150" y="43"/>
      <point x="94" y="43" type="curve" smooth="yes"/>
      <point x="82" y="43"/>
      <point x="64" y="46"/>
      <point x="52" y="50" type="curve" smooth="yes"/>
      <point x="41" y="54"/>
      <point x="31" y="57"/>
      <point x="17" y="57" type="curve" smooth="yes"/>
      <point x="-12" y="57"/>
      <point x="-24" y="38"/>
      <point x="-24" y="10" type="curve" smooth="yes"/>
      <point x="-24" y="-8"/>
      <point x="-12" y="-22"/>
      <point x="6" y="-30" type="curve" smooth="yes"/>
      <point x="29" y="-40"/>
      <point x="60" y="-44"/>
    </contour>
    <contour>
      <point x="420" y="236" type="curve" smooth="yes"/>
      <point x="395" y="236"/>
      <point x="375" y="245"/>
      <point x="358" y="258" type="curve"/>
      <point x="408" y="287"/>
      <point x="462" y="310"/>
      <point x="478" y="310" type="curve" smooth="yes"/>
      <point x="488" y="310"/>
      <point x="494" y="308"/>
      <point x="494" y="297" type="curve" smooth="yes"/>
      <point x="494" y="264"/>
      <point x="475" y="236"/>
    </contour>
  </outline>
</glyph>
<glyph name="uni078D" format="2">
  <advance width="576"/>
  <unicode hex="078D"/>
  <outline>
    <contour>
      <point x="3" y="-78" type="curve" smooth="yes"/>
      <point x="25" y="-78"/>
      <point x="74" y="-61"/>
      <point x="140" y="-23" type="curve" smooth="yes"/>
      <point x="257" y="44"/>
      <point x="394" y="172"/>
      <point x="484" y="270" type="curve" smooth="yes"/>
      <point x="513" y="301"/>
      <point x="527" y="319"/>
      <point x="527" y="342" type="curve" smooth="yes"/>
      <point x="527" y="363"/>
      <point x="513" y="374"/>
      <point x="493" y="374" type="curve" smooth="yes"/>
      <point x="470" y="374"/>
      <point x="447" y="371"/>
      <point x="425" y="369" type="curve" smooth="yes"/>
      <point x="396" y="366"/>
      <point x="367" y="363"/>
      <point x="338" y="362" type="curve"/>
      <point x="363" y="378"/>
      <point x="381" y="392"/>
      <point x="392" y="406" type="curve" smooth="yes"/>
      <point x="401" y="417"/>
      <point x="406" y="428"/>
      <point x="406" y="438" type="curve" smooth="yes"/>
      <point x="406" y="460"/>
      <point x="391" y="479"/>
      <point x="368" y="479" type="curve" smooth="yes"/>
      <point x="351" y="479"/>
      <point x="336" y="472"/>
      <point x="324" y="458" type="curve" smooth="yes"/>
      <point x="296" y="426"/>
      <point x="267" y="399"/>
      <point x="229" y="373" type="curve" smooth="yes"/>
      <point x="215" y="363"/>
      <point x="208" y="350"/>
      <point x="208" y="334" type="curve" smooth="yes"/>
      <point x="208" y="303"/>
      <point x="239" y="282"/>
      <point x="294" y="282" type="curve" smooth="yes"/>
      <point x="330" y="282"/>
      <point x="360" y="283"/>
      <point x="390" y="287" type="curve"/>
      <point x="301" y="207"/>
      <point x="198" y="123"/>
      <point x="153" y="99" type="curve" smooth="yes"/>
      <point x="70" y="54"/>
      <point x="27" y="42"/>
      <point x="-13" y="32" type="curve" smooth="yes"/>
      <point x="-43" y="25"/>
      <point x="-59" y="7"/>
      <point x="-59" y="-21" type="curve" smooth="yes"/>
      <point x="-59" y="-55"/>
      <point x="-38" y="-78"/>
    </contour>
  </outline>
</glyph>
<glyph name="uni078F" format="2">
  <advance width="722"/>
  <unicode hex="078F"/>
  <outline>
    <contour>
      <point x="266" y="-156" type="curve" smooth="yes"/>
      <point x="329" y="-156"/>
      <point x="406" y="-147"/>
      <point x="441" y="-138" type="curve" smooth="yes"/>
      <point x="471" y="-130"/>
      <point x="491" y="-117"/>
      <point x="491" y="-95" type="curve" smooth="yes"/>
      <point x="491" y="-68"/>
      <point x="477" y="-55"/>
      <point x="455" y="-55" type="curve" smooth="yes"/>
      <point x="435" y="-55"/>
      <point x="417" y="-59"/>
      <point x="398" y="-61" type="curve" smooth="yes"/>
      <point x="373" y="-64"/>
      <point x="343" y="-68"/>
      <point x="272" y="-68" type="curve" smooth="yes"/>
      <point x="178" y="-68"/>
      <point x="142" y="-42"/>
      <point x="142" y="4" type="curve" smooth="yes"/>
      <point x="142" y="76"/>
      <point x="226" y="148"/>
      <point x="289" y="187" type="curve"/>
      <point x="303" y="177"/>
      <point x="317" y="169"/>
      <point x="327" y="169" type="curve" smooth="yes"/>
      <point x="355" y="169"/>
      <point x="391" y="185"/>
      <point x="424" y="233" type="curve"/>
      <point x="436" y="187"/>
      <point x="470" y="162"/>
      <point x="500" y="162" type="curve" smooth="yes"/>
      <point x="538" y="162"/>
      <point x="571" y="187"/>
      <point x="620" y="231" type="curve" smooth="yes"/>
      <point x="665" y="271"/>
      <point x="697" y="302"/>
      <point x="697" y="340" type="curve" smooth="yes"/>
      <point x="697" y="362"/>
      <point x="685" y="376"/>
      <point x="661" y="376" type="curve" smooth="yes"/>
      <point x="641" y="376"/>
      <point x="627" y="372"/>
      <point x="614" y="359" type="curve" smooth="yes"/>
      <point x="604" y="349"/>
      <point x="598" y="337"/>
      <point x="581" y="311" type="curve" smooth="yes"/>
      <point x="559" y="277"/>
      <point x="526" y="250"/>
      <point x="516" y="250" type="curve" smooth="yes"/>
      <point x="503" y="250"/>
      <point x="491" y="309"/>
      <point x="488" y="336" type="curve" smooth="yes"/>
      <point x="486" y="353"/>
      <point x="476" y="361"/>
      <point x="462" y="361" type="curve" smooth="yes"/>
      <point x="455" y="361"/>
      <point x="445" y="353"/>
      <point x="434" y="342" type="curve" smooth="yes"/>
      <point x="410" y="319"/>
      <point x="379" y="282"/>
      <point x="356" y="282" type="curve" smooth="yes"/>
      <point x="343" y="282"/>
      <point x="326" y="309"/>
      <point x="308" y="337" type="curve" smooth="yes"/>
      <point x="299" y="350"/>
      <point x="290" y="362"/>
      <point x="276" y="362" type="curve" smooth="yes"/>
      <point x="229" y="362"/>
      <point x="185" y="324"/>
      <point x="185" y="291" type="curve" smooth="yes"/>
      <point x="185" y="276"/>
      <point x="192" y="264"/>
      <point x="202" y="255" type="curve" smooth="yes"/>
      <point x="210" y="247"/>
      <point x="220" y="240"/>
      <point x="229" y="234" type="curve"/>
      <point x="150" y="186"/>
      <point x="49" y="91"/>
      <point x="49" y="-7" type="curve" smooth="yes"/>
      <point x="49" y="-87"/>
      <point x="102" y="-156"/>
    </contour>
  </outline>
</glyph>
<glyph name="uni0791" format="2">
  <advance width="390"/>
  <unicode hex="0791"/>
  <outline>
    <contour>
      <point x="253" y="-44" type="curve" smooth="yes"/>
      <point x="306" y="-44"/>
      <point x="322" y="-23"/>
      <point x="322" y="4" type="curve" smooth="yes"/>
      <point x="322" y="32"/>
      <point x="311" y="48"/>
      <point x="286" y="48" type="curve" smooth="yes"/>
      <point x="268" y="48"/>
      <point x="256" y="46"/>
      <point x="240" y="46" type="curve" smooth="yes"/>
      <point x="178" y="46"/>
      <point x="129" y="75"/>
      <point x="129" y="92" type="curve" smooth="yes"/>
      <point x="129" y="100"/>
      <point x="173" y="130"/>
      <point x="222" y="149" type="curve" smooth="yes"/>
      <point x="266" y="166"/>
      <point x="271" y="187"/>
      <point x="271" y="212" type="curve" smooth="yes"/>
      <point x="271" y="227"/>
      <point x="260" y="237"/>
      <point x="244" y="245" type="curve" smooth="yes"/>
      <point x="217" y="259"/>
      <point x="177" y="265"/>
      <point x="159" y="271" type="curve"/>
      <point x="172" y="280"/>
      <point x="196" y="297"/>
      <point x="214" y="316" type="curve" smooth="yes"/>
      <point x="225" y="328"/>
      <point x="233" y="341"/>
      <point x="233" y="354" type="curve" smooth="yes"/>
      <point x="233" y="371"/>
      <point x="222" y="387"/>
      <point x="198" y="387" type="curve" smooth="yes"/>
      <point x="180" y="387"/>
      <point x="157" y="374"/>
      <point x="134" y="356" type="curve" smooth="yes"/>
      <point x="99" y="329"/>
      <point x="70" y="302"/>
      <point x="54" y="283" type="curve" smooth="yes"/>
      <point x="44" y="271"/>
      <point x="39" y="255"/>
      <point x="39" y="247" type="curve" smooth="yes"/>
      <point x="39" y="229"/>
      <point x="53" y="218"/>
      <point x="72" y="213" type="curve" smooth="yes"/>
      <point x="105" y="204"/>
      <point x="136" y="201"/>
      <point x="149" y="196" type="curve"/>
      <point x="116" y="178"/>
      <point x="24" y="152"/>
      <point x="24" y="78" type="curve" smooth="yes"/>
      <point x="24" y="2"/>
      <point x="162" y="-44"/>
    </contour>
  </outline>
</glyph>
<glyph name="uni0792" format="2">
  <advance width="570"/>
  <unicode hex="0792"/>
  <outline>
    <contour>
      <point x="264" y="-156" type="curve" smooth="yes"/>
      <point x="301" y="-156"/>
      <point x="341" y="-152"/>
      <point x="372" y="-145" type="curve" smooth="yes"/>
      <point x="406" y="-137"/>
      <point x="429" y="-122"/>
      <point x="429" y="-99" type="curve" smooth="yes"/>
      <point x="429" y="-75"/>
      <point x="414" y="-63"/>
      <point x="393" y="-63" type="curve" smooth="yes"/>
      <point x="377" y="-63"/>
      <point x="362" y="-64"/>
      <point x="347" y="-65" type="curve" smooth="yes"/>
      <point x="325" y="-66"/>
      <point x="302" y="-68"/>
      <point x="271" y="-68" type="curve" smooth="yes"/>
      <point x="196" y="-68"/>
      <point x="142" y="-55"/>
      <point x="142" y="-20" type="curve" smooth="yes"/>
      <point x="142" y="17"/>
      <point x="207" y="71"/>
      <point x="284" y="122" type="curve"/>
      <point x="304" y="110"/>
      <point x="326" y="100"/>
      <point x="347" y="94" type="curve" smooth="yes"/>
      <point x="367" y="88"/>
      <point x="387" y="85"/>
      <point x="405" y="85" type="curve" smooth="yes"/>
      <point x="438" y="85"/>
      <point x="451" y="104"/>
      <point x="451" y="127" type="curve" smooth="yes"/>
      <point x="451" y="148"/>
      <point x="436" y="165"/>
      <point x="410" y="172" type="curve" smooth="yes"/>
      <point x="397" y="176"/>
      <point x="386" y="178"/>
      <point x="375" y="183" type="curve"/>
      <point x="416" y="207"/>
      <point x="446" y="227"/>
      <point x="494" y="248" type="curve" smooth="yes"/>
      <point x="536" y="266"/>
      <point x="545" y="279"/>
      <point x="545" y="304" type="curve" smooth="yes"/>
      <point x="545" y="333"/>
      <point x="522" y="342"/>
      <point x="508" y="342" type="curve" smooth="yes"/>
      <point x="494" y="342"/>
      <point x="468" y="332"/>
      <point x="438" y="318" type="curve" smooth="yes"/>
      <point x="398" y="299"/>
      <point x="350" y="271"/>
      <point x="306" y="244" type="curve"/>
      <point x="300" y="249"/>
      <point x="287" y="260"/>
      <point x="280" y="268" type="curve" smooth="yes"/>
      <point x="268" y="283"/>
      <point x="259" y="292"/>
      <point x="236" y="292" type="curve" smooth="yes"/>
      <point x="206" y="292"/>
      <point x="189" y="261"/>
      <point x="189" y="237" type="curve" smooth="yes"/>
      <point x="189" y="219"/>
      <point x="196" y="201"/>
      <point x="209" y="184" type="curve"/>
      <point x="129" y="131"/>
      <point x="49" y="65"/>
      <point x="49" y="-33" type="curve" smooth="yes"/>
      <point x="49" y="-92"/>
      <point x="106" y="-156"/>
    </contour>
  </outline>
</glyph>
<glyph name="uni0793" format="2">
  <advance width="671"/>
  <unicode hex="0793"/>
  <outline>
    <contour>
      <point x="275" y="-156" type="curve" smooth="yes"/>
      <point x="327" y="-156"/>
      <point x="412" y="-151"/>
      <point x="460" y="-131" type="curve" smooth="yes"/>
      <point x="486" y="-120"/>
      <point x="501" y="-106"/>
      <point x="501" y="-86" type="curve" smooth="yes"/>
      <point x="501" y="-63"/>
      <point x="487" y="-52"/>
      <point x="465" y="-52" type="curve" smooth="yes"/>
      <point x="459" y="-52"/>
      <point x="451" y="-54"/>
      <point x="431" y="-58" type="curve" smooth="yes"/>
      <point x="405" y="-63"/>
      <point x="360" y="-68"/>
      <point x="275" y="-68" type="curve" smooth="yes"/>
      <point x="171" y="-68"/>
      <point x="142" y="-46"/>
      <point x="142" y="6" type="curve" smooth="yes"/>
      <point x="142" y="48"/>
      <point x="188" y="78"/>
      <point x="256" y="111" type="curve"/>
      <point x="282" y="107"/>
      <point x="312" y="105"/>
      <point x="346" y="105" type="curve" smooth="yes"/>
      <point x="496" y="105"/>
      <point x="642" y="183"/>
      <point x="642" y="287" type="curve" smooth="yes"/>
      <point x="642" y="342"/>
      <point x="609" y="381"/>
      <point x="538" y="381" type="curve" smooth="yes"/>
      <point x="475" y="381"/>
      <point x="424" y="353"/>
      <point x="381" y="318" type="curve"/>
      <point x="344" y="354"/>
      <point x="292" y="364"/>
      <point x="268" y="364" type="curve" smooth="yes"/>
      <point x="156" y="364"/>
      <point x="104" y="294"/>
      <point x="104" y="238" type="curve" smooth="yes"/>
      <point x="104" y="199"/>
      <point x="121" y="165"/>
      <point x="164" y="140" type="curve"/>
      <point x="83" y="87"/>
      <point x="49" y="43"/>
      <point x="49" y="-16" type="curve" smooth="yes"/>
      <point x="49" y="-96"/>
      <point x="112" y="-156"/>
    </contour>
    <contour>
      <point x="252" y="193" type="curve"/>
      <point x="213" y="201"/>
      <point x="196" y="216"/>
      <point x="196" y="238" type="curve" smooth="yes"/>
      <point x="196" y="252"/>
      <point x="208" y="284"/>
      <point x="265" y="284" type="curve" smooth="yes"/>
      <point x="291" y="284"/>
      <point x="305" y="276"/>
      <point x="320" y="261" type="curve"/>
      <point x="296" y="238"/>
      <point x="272" y="215"/>
    </contour>
    <contour>
      <point x="357" y="186" type="curve"/>
      <point x="408" y="239"/>
      <point x="465" y="300"/>
      <point x="516" y="300" type="curve" smooth="yes"/>
      <point x="541" y="300"/>
      <point x="549" y="287"/>
      <point x="549" y="278" type="curve" smooth="yes"/>
      <point x="549" y="240"/>
      <point x="465" y="190"/>
    </contour>
  </outline>
</glyph>
<glyph name="uni0794" format="2">
  <advance width="728"/>
  <unicode hex="0794"/>
  <outline>
    <contour>
      <point x="3" y="-78" type="curve" smooth="yes"/>
      <point x="26" y="-78"/>
      <point x="79" y="-62"/>
      <point x="165" y="-12" type="curve" smooth="yes"/>
      <point x="253" y="39"/>
      <point x="339" y="129"/>
      <point x="425" y="222" type="curve"/>
      <point x="478" y="227"/>
      <point x="520" y="243"/>
      <point x="568" y="263" type="curve"/>
      <point x="562" y="202"/>
      <point x="508" y="141"/>
      <point x="488" y="113" type="curve" smooth="yes"/>
      <point x="478" y="99"/>
      <point x="466" y="91"/>
      <point x="466" y="65" type="curve" smooth="yes"/>
      <point x="466" y="42"/>
      <point x="484" y="26"/>
      <point x="512" y="26" type="curve" smooth="yes"/>
      <point x="531" y="26"/>
      <point x="552" y="41"/>
      <point x="563" y="55" type="curve" smooth="yes"/>
      <point x="615" y="119"/>
      <point x="665" y="217"/>
      <point x="665" y="310" type="curve" smooth="yes"/>
      <point x="665" y="363"/>
      <point x="660" y="391"/>
      <point x="628" y="391" type="curve" smooth="yes"/>
      <point x="612" y="391"/>
      <point x="597" y="382"/>
      <point x="578" y="370" type="curve" smooth="yes"/>
      <point x="548" y="351"/>
      <point x="511" y="329"/>
      <point x="451" y="323" type="curve"/>
      <point x="433" y="354"/>
      <point x="403" y="376"/>
      <point x="364" y="376" type="curve" smooth="yes"/>
      <point x="307" y="376"/>
      <point x="276" y="336"/>
      <point x="276" y="293" type="curve" smooth="yes"/>
      <point x="276" y="266"/>
      <point x="295" y="243"/>
      <point x="326" y="231" type="curve"/>
      <point x="274" y="176"/>
      <point x="207" y="122"/>
      <point x="122" y="81" type="curve" smooth="yes"/>
      <point x="81" y="61"/>
      <point x="37" y="46"/>
      <point x="-13" y="34" type="curve" smooth="yes"/>
      <point x="-43" y="27"/>
      <point x="-59" y="8"/>
      <point x="-59" y="-21" type="curve" smooth="yes"/>
      <point x="-59" y="-55"/>
      <point x="-38" y="-78"/>
    </contour>
  </outline>
</glyph>
<glyph name="uni0796" format="2">
  <advance width="583"/>
  <unicode hex="0796"/>
  <outline>
    <contour>
      <point x="265" y="-156" type="curve" smooth="yes"/>
      <point x="312" y="-156"/>
      <point x="386" y="-153"/>
      <point x="437" y="-136" type="curve" smooth="yes"/>
      <point x="469" y="-125"/>
      <point x="491" y="-110"/>
      <point x="491" y="-86" type="curve" smooth="yes"/>
      <point x="491" y="-63"/>
      <point x="477" y="-52"/>
      <point x="455" y="-52" type="curve" smooth="yes"/>
      <point x="451" y="-52"/>
      <point x="432" y="-56"/>
      <point x="409" y="-60" type="curve" smooth="yes"/>
      <point x="383" y="-64"/>
      <point x="344" y="-68"/>
      <point x="265" y="-68" type="curve" smooth="yes"/>
      <point x="161" y="-68"/>
      <point x="131" y="-46"/>
      <point x="131" y="6" type="curve" smooth="yes"/>
      <point x="131" y="41"/>
      <point x="163" y="68"/>
      <point x="213" y="95" type="curve"/>
      <point x="242" y="89"/>
      <point x="270" y="89"/>
      <point x="283" y="89" type="curve" smooth="yes"/>
      <point x="389" y="89"/>
      <point x="496" y="144"/>
      <point x="496" y="249" type="curve" smooth="yes"/>
      <point x="496" y="291"/>
      <point x="468" y="322"/>
      <point x="454" y="327" type="curve"/>
      <point x="489" y="340"/>
      <point x="519" y="353"/>
      <point x="519" y="380" type="curve" smooth="yes"/>
      <point x="519" y="402"/>
      <point x="502" y="419"/>
      <point x="479" y="419" type="curve" smooth="yes"/>
      <point x="456" y="419"/>
      <point x="442" y="401"/>
      <point x="404" y="386" type="curve" smooth="yes"/>
      <point x="358" y="368"/>
      <point x="324" y="367"/>
      <point x="324" y="332" type="curve" smooth="yes"/>
      <point x="324" y="311"/>
      <point x="338" y="304"/>
      <point x="360" y="293" type="curve" smooth="yes"/>
      <point x="379" y="284"/>
      <point x="398" y="280"/>
      <point x="398" y="247" type="curve" smooth="yes"/>
      <point x="398" y="202"/>
      <point x="351" y="179"/>
      <point x="310" y="179" type="curve" smooth="yes"/>
      <point x="292" y="179"/>
      <point x="275" y="181"/>
      <point x="260" y="186" type="curve"/>
      <point x="254" y="209"/>
      <point x="234" y="239"/>
      <point x="204" y="239" type="curve" smooth="yes"/>
      <point x="174" y="239"/>
      <point x="130" y="227"/>
      <point x="130" y="170" type="curve" smooth="yes"/>
      <point x="130" y="155"/>
      <point x="134" y="142"/>
      <point x="142" y="132" type="curve"/>
      <point x="70" y="82"/>
      <point x="39" y="40"/>
      <point x="39" y="-16" type="curve" smooth="yes"/>
      <point x="39" y="-96"/>
      <point x="102" y="-156"/>
    </contour>
  </outline>
</glyph>
<glyph name="uni0797" format="2">
  <advance width="646"/>
  <unicode hex="0797"/>
  <outline>
    <contour>
      <point x="13" y="-156" type="curve" smooth="yes"/>
      <point x="35" y="-156"/>
      <point x="84" y="-137"/>
      <point x="146" y="-95" type="curve" smooth="yes"/>
      <point x="185" y="-68"/>
      <point x="227" y="-20"/>
      <point x="227" y="23" type="curve" smooth="yes"/>
      <point x="227" y="42"/>
      <point x="216" y="58"/>
      <point x="204" y="70" type="curve" smooth="yes"/>
      <point x="190" y="85"/>
      <point x="175" y="95"/>
      <point x="175" y="103" type="curve" smooth="yes"/>
      <point x="175" y="115"/>
      <point x="190" y="127"/>
      <point x="210" y="142" type="curve"/>
      <point x="237" y="86"/>
      <point x="286" y="60"/>
      <point x="353" y="60" type="curve" smooth="yes"/>
      <point x="414" y="60"/>
      <point x="509" y="104"/>
      <point x="509" y="193" type="curve" smooth="yes"/>
      <point x="509" y="254"/>
      <point x="472" y="296"/>
      <point x="423" y="305" type="curve"/>
      <point x="515" y="361"/>
      <point x="615" y="419"/>
      <point x="648" y="438" type="curve" smooth="yes"/>
      <point x="678" y="455"/>
      <point x="693" y="472"/>
      <point x="693" y="488" type="curve" smooth="yes"/>
      <point x="693" y="518"/>
      <point x="668" y="523"/>
      <point x="654" y="523" type="curve" smooth="yes"/>
      <point x="641" y="523"/>
      <point x="624" y="520"/>
      <point x="605" y="509" type="curve" smooth="yes"/>
      <point x="537" y="470"/>
      <point x="453" y="420"/>
      <point x="372" y="365" type="curve" smooth="yes"/>
      <point x="220" y="263"/>
      <point x="78" y="150"/>
      <point x="78" y="93" type="curve" smooth="yes"/>
      <point x="78" y="80"/>
      <point x="89" y="67"/>
      <point x="101" y="55" type="curve" smooth="yes"/>
      <point x="113" y="43"/>
      <point x="123" y="32"/>
      <point x="123" y="22" type="curve" smooth="yes"/>
      <point x="123" y="-10"/>
      <point x="50" y="-34"/>
      <point x="-2" y="-49" type="curve" smooth="yes"/>
      <point x="-32" y="-58"/>
      <point x="-49" y="-75"/>
      <point x="-49" y="-104" type="curve" smooth="yes"/>
      <point x="-49" y="-138"/>
      <point x="-28" y="-156"/>
    </contour>
    <contour>
      <point x="354" y="143" type="curve" smooth="yes"/>
      <point x="315" y="143"/>
      <point x="299" y="166"/>
      <point x="291" y="196" type="curve"/>
      <point x="319" y="222"/>
      <point x="346" y="235"/>
      <point x="370" y="235" type="curve" smooth="yes"/>
      <point x="401" y="235"/>
      <point x="416" y="218"/>
      <point x="416" y="196" type="curve" smooth="yes"/>
      <point x="416" y="163"/>
      <point x="386" y="143"/>
    </contour>
  </outline>
</glyph>
<glyph name="uni0798" format="2">
  <advance width="618"/>
  <unicode hex="0798"/>
  <outline>
    <contour>
      <point x="59" y="-44" type="curve" smooth="yes"/>
      <point x="141" y="-44"/>
      <point x="264" y="5"/>
      <point x="264" y="81" type="curve" smooth="yes"/>
      <point x="264" y="106"/>
      <point x="249" y="125"/>
      <point x="234" y="140" type="curve" smooth="yes"/>
      <point x="220" y="154"/>
      <point x="207" y="164"/>
      <point x="207" y="171" type="curve" smooth="yes"/>
      <point x="207" y="181"/>
      <point x="225" y="194"/>
      <point x="246" y="208" type="curve"/>
      <point x="290" y="168"/>
      <point x="348" y="153"/>
      <point x="383" y="153" type="curve" smooth="yes"/>
      <point x="460" y="153"/>
      <point x="555" y="205"/>
      <point x="555" y="300" type="curve" smooth="yes"/>
      <point x="555" y="357"/>
      <point x="528" y="391"/>
      <point x="467" y="391" type="curve" smooth="yes"/>
      <point x="340" y="391"/>
      <point x="108" y="241"/>
      <point x="108" y="151" type="curve" smooth="yes"/>
      <point x="108" y="137"/>
      <point x="125" y="127"/>
      <point x="140" y="116" type="curve" smooth="yes"/>
      <point x="153" y="106"/>
      <point x="164" y="97"/>
      <point x="164" y="84" type="curve" smooth="yes"/>
      <point x="164" y="55"/>
      <point x="118" y="43"/>
      <point x="62" y="43" type="curve" smooth="yes"/>
      <point x="50" y="43"/>
      <point x="32" y="46"/>
      <point x="20" y="50" type="curve" smooth="yes"/>
      <point x="9" y="54"/>
      <point x="-1" y="57"/>
      <point x="-15" y="57" type="curve" smooth="yes"/>
      <point x="-44" y="57"/>
      <point x="-56" y="38"/>
      <point x="-56" y="10" type="curve" smooth="yes"/>
      <point x="-56" y="-8"/>
      <point x="-44" y="-22"/>
      <point x="-26" y="-30" type="curve" smooth="yes"/>
      <point x="-3" y="-40"/>
      <point x="28" y="-44"/>
    </contour>
    <contour>
      <point x="388" y="236" type="curve" smooth="yes"/>
      <point x="363" y="236"/>
      <point x="343" y="245"/>
      <point x="326" y="258" type="curve"/>
      <point x="376" y="287"/>
      <point x="430" y="310"/>
      <point x="446" y="310" type="curve" smooth="yes"/>
      <point x="456" y="310"/>
      <point x="462" y="308"/>
      <point x="462" y="297" type="curve" smooth="yes"/>
      <point x="462" y="264"/>
      <point x="443" y="236"/>
    </contour>
    <contour>
      <point x="457" y="541" type="curve" smooth="yes"/>
      <point x="484" y="541"/>
      <point x="511" y="563"/>
      <point x="511" y="594" type="curve" smooth="yes"/>
      <point x="511" y="621"/>
      <point x="491" y="642"/>
      <point x="463" y="642" type="curve" smooth="yes"/>
      <point x="435" y="642"/>
      <point x="410" y="619"/>
      <point x="410" y="588" type="curve" smooth="yes"/>
      <point x="410" y="561"/>
      <point x="430" y="541"/>
    </contour>
    <contour>
      <point x="351" y="415" type="curve" smooth="yes"/>
      <point x="378" y="415"/>
      <point x="405" y="437"/>
      <point x="405" y="468" type="curve" smooth="yes"/>
      <point x="405" y="495"/>
      <point x="385" y="516"/>
      <point x="357" y="516" type="curve" smooth="yes"/>
      <point x="330" y="516"/>
      <point x="304" y="493"/>
      <point x="304" y="462" type="curve" smooth="yes"/>
      <point x="304" y="435"/>
      <point x="324" y="415"/>
    </contour>
    <contour>
      <point x="541" y="415" type="curve" smooth="yes"/>
      <point x="569" y="415"/>
      <point x="596" y="437"/>
      <point x="596" y="468" type="curve" smooth="yes"/>
      <point x="596" y="495"/>
      <point x="575" y="516"/>
      <point x="548" y="516" type="curve" smooth="yes"/>
      <point x="520" y="516"/>
      <point x="495" y="493"/>
      <point x="495" y="462" type="curve" smooth="yes"/>
      <point x="495" y="435"/>
      <point x="514" y="415"/>
    </contour>
  </outline>
</glyph>
<glyph name="uni079A" format="2">
  <advance width="529"/>
  <unicode hex="079A"/>
  <outline>
    <contour>
      <point x="75" y="-10" type="curve" smooth="yes"/>
      <point x="93" y="-10"/>
      <point x="145" y="4"/>
      <point x="213" y="47" type="curve" smooth="yes"/>
      <point x="320" y="114"/>
      <point x="439" y="215"/>
      <point x="482" y="283" type="curve" smooth="yes"/>
      <point x="494" y="301"/>
      <point x="500" y="316"/>
      <point x="500" y="328" type="curve" smooth="yes"/>
      <point x="500" y="343"/>
      <point x="494" y="361"/>
      <point x="469" y="361" type="curve" smooth="yes"/>
      <point x="454" y="361"/>
      <point x="437" y="351"/>
      <point x="420" y="332" type="curve" smooth="yes"/>
      <point x="359" y="264"/>
      <point x="330" y="236"/>
      <point x="165" y="142" type="curve" smooth="yes"/>
      <point x="131" y="122"/>
      <point x="92" y="108"/>
      <point x="54" y="97" type="curve" smooth="yes"/>
      <point x="29" y="90"/>
      <point x="15" y="64"/>
      <point x="15" y="40" type="curve" smooth="yes"/>
      <point x="15" y="9"/>
      <point x="37" y="-10"/>
    </contour>
    <contour>
      <point x="411" y="421" type="curve" smooth="yes"/>
      <point x="438" y="421"/>
      <point x="465" y="443"/>
      <point x="465" y="473" type="curve" smooth="yes"/>
      <point x="465" y="500"/>
      <point x="444" y="522"/>
      <point x="417" y="522" type="curve" smooth="yes"/>
      <point x="389" y="522"/>
      <point x="364" y="499"/>
      <point x="364" y="468" type="curve" smooth="yes"/>
      <point x="364" y="441"/>
      <point x="383" y="421"/>
    </contour>
  </outline>
</glyph>
<glyph name="uni079B" format="2">
  <advance width="634"/>
  <unicode hex="079B"/>
  <outline>
    <contour>
      <point x="-1" y="-78" type="curve" smooth="yes"/>
      <point x="17" y="-78"/>
      <point x="76" y="-60"/>
      <point x="147" y="-10" type="curve" smooth="yes"/>
      <point x="205" y="31"/>
      <point x="257" y="80"/>
      <point x="318" y="152" type="curve"/>
      <point x="338" y="149"/>
      <point x="355" y="148"/>
      <point x="369" y="148" type="curve" smooth="yes"/>
      <point x="474" y="148"/>
      <point x="581" y="203"/>
      <point x="581" y="308" type="curve" smooth="yes"/>
      <point x="581" y="350"/>
      <point x="554" y="381"/>
      <point x="539" y="386" type="curve"/>
      <point x="575" y="399"/>
      <point x="604" y="412"/>
      <point x="604" y="439" type="curve" smooth="yes"/>
      <point x="604" y="461"/>
      <point x="588" y="479"/>
      <point x="564" y="479" type="curve" smooth="yes"/>
      <point x="542" y="479"/>
      <point x="528" y="460"/>
      <point x="503" y="450" type="curve" smooth="yes"/>
      <point x="465" y="435"/>
      <point x="410" y="435"/>
      <point x="410" y="391" type="curve" smooth="yes"/>
      <point x="410" y="372"/>
      <point x="424" y="364"/>
      <point x="437" y="358" type="curve" smooth="yes"/>
      <point x="458" y="348"/>
      <point x="483" y="341"/>
      <point x="483" y="306" type="curve" smooth="yes"/>
      <point x="483" y="261"/>
      <point x="436" y="238"/>
      <point x="395" y="238" type="curve" smooth="yes"/>
      <point x="376" y="238"/>
      <point x="359" y="240"/>
      <point x="346" y="245" type="curve"/>
      <point x="339" y="268"/>
      <point x="316" y="298"/>
      <point x="278" y="298" type="curve" smooth="yes"/>
      <point x="243" y="298"/>
      <point x="215" y="271"/>
      <point x="215" y="235" type="curve" smooth="yes"/>
      <point x="215" y="217"/>
      <point x="223" y="198"/>
      <point x="235" y="187" type="curve"/>
      <point x="193" y="144"/>
      <point x="165" y="119"/>
      <point x="104" y="80" type="curve" smooth="yes"/>
      <point x="68" y="57"/>
      <point x="20" y="43"/>
      <point x="-18" y="31" type="curve" smooth="yes"/>
      <point x="-45" y="22"/>
      <point x="-59" y="4"/>
      <point x="-59" y="-21" type="curve" smooth="yes"/>
      <point x="-59" y="-57"/>
      <point x="-39" y="-78"/>
    </contour>
    <contour>
      <point x="491" y="524" type="curve" smooth="yes"/>
      <point x="518" y="524"/>
      <point x="545" y="546"/>
      <point x="545" y="576" type="curve" smooth="yes"/>
      <point x="545" y="603"/>
      <point x="524" y="625"/>
      <point x="497" y="625" type="curve" smooth="yes"/>
      <point x="469" y="625"/>
      <point x="444" y="602"/>
      <point x="444" y="571" type="curve" smooth="yes"/>
      <point x="444" y="544"/>
      <point x="463" y="524"/>
    </contour>
  </outline>
</glyph>
<glyph name="uni079C" format="2">
  <advance width="649"/>
  <unicode hex="079C"/>
  <outline>
    <contour>
      <point x="3" y="-78" type="curve" smooth="yes"/>
      <point x="25" y="-78"/>
      <point x="86" y="-56"/>
      <point x="150" y="-19" type="curve" smooth="yes"/>
      <point x="231" y="28"/>
      <point x="308" y="109"/>
      <point x="389" y="178" type="curve"/>
      <point x="434" y="163"/>
      <point x="483" y="154"/>
      <point x="524" y="154" type="curve" smooth="yes"/>
      <point x="568" y="154"/>
      <point x="604" y="166"/>
      <point x="604" y="193" type="curve" smooth="yes"/>
      <point x="604" y="223"/>
      <point x="582" y="238"/>
      <point x="544" y="238" type="curve" smooth="yes"/>
      <point x="517" y="238"/>
      <point x="495" y="242"/>
      <point x="477" y="248" type="curve"/>
      <point x="528" y="289"/>
      <point x="544" y="303"/>
      <point x="576" y="320" type="curve" smooth="yes"/>
      <point x="606" y="336"/>
      <point x="634" y="355"/>
      <point x="634" y="372" type="curve" smooth="yes"/>
      <point x="634" y="401"/>
      <point x="609" y="405"/>
      <point x="595" y="405" type="curve" smooth="yes"/>
      <point x="548" y="405"/>
      <point x="480" y="368"/>
      <point x="401" y="303" type="curve"/>
      <point x="382" y="324"/>
      <point x="360" y="340"/>
      <point x="323" y="340" type="curve" smooth="yes"/>
      <point x="279" y="340"/>
      <point x="265" y="307"/>
      <point x="265" y="284" type="curve" smooth="yes"/>
      <point x="265" y="259"/>
      <point x="281" y="237"/>
      <point x="307" y="218" type="curve"/>
      <point x="243" y="159"/>
      <point x="176" y="108"/>
      <point x="93" y="70" type="curve" smooth="yes"/>
      <point x="61" y="55"/>
      <point x="25" y="42"/>
      <point x="-13" y="32" type="curve" smooth="yes"/>
      <point x="-42" y="24"/>
      <point x="-59" y="8"/>
      <point x="-59" y="-21" type="curve" smooth="yes"/>
      <point x="-59" y="-55"/>
      <point x="-38" y="-78"/>
    </contour>
    <contour>
      <point x="507" y="430" type="curve" smooth="yes"/>
      <point x="534" y="430"/>
      <point x="561" y="452"/>
      <point x="561" y="482" type="curve" smooth="yes"/>
      <point x="561" y="509"/>
      <point x="540" y="531"/>
      <point x="513" y="531" type="curve" smooth="yes"/>
      <point x="485" y="531"/>
      <point x="460" y="508"/>
      <point x="460" y="477" type="curve" smooth="yes"/>
      <point x="460" y="450"/>
      <point x="479" y="430"/>
    </contour>
  </outline>
</glyph>
<glyph name="uni079D" format="2">
  <advance width="1019"/>
  <unicode hex="079D"/>
  <outline>
    <contour>
      <point x="75" y="46" type="curve" smooth="yes"/>
      <point x="92" y="46"/>
      <point x="112" y="54"/>
      <point x="133" y="66" type="curve" smooth="yes"/>
      <point x="178" y="92"/>
      <point x="229" y="139"/>
      <point x="249" y="185" type="curve"/>
      <point x="318" y="175"/>
      <point x="405" y="166"/>
      <point x="538" y="166" type="curve" smooth="yes"/>
      <point x="688" y="166"/>
      <point x="830" y="173"/>
      <point x="919" y="235" type="curve" smooth="yes"/>
      <point x="944" y="252"/>
      <point x="964" y="273"/>
      <point x="980" y="300" type="curve" smooth="yes"/>
      <point x="992" y="321"/>
      <point x="1000" y="340"/>
      <point x="1000" y="365" type="curve" smooth="yes"/>
      <point x="1000" y="390"/>
      <point x="990" y="405"/>
      <point x="964" y="405" type="curve" smooth="yes"/>
      <point x="938" y="405"/>
      <point x="928" y="392"/>
      <point x="914" y="363" type="curve" smooth="yes"/>
      <point x="898" y="331"/>
      <point x="871" y="302"/>
      <point x="836" y="286" type="curve" smooth="yes"/>
      <point x="793" y="266"/>
      <point x="662" y="254"/>
      <point x="533" y="254" type="curve" smooth="yes"/>
      <point x="425" y="254"/>
      <point x="339" y="260"/>
      <point x="265" y="271" type="curve"/>
      <point x="261" y="326"/>
      <point x="226" y="363"/>
      <point x="175" y="363" type="curve" smooth="yes"/>
      <point x="131" y="363"/>
      <point x="97" y="321"/>
      <point x="97" y="284" type="curve" smooth="yes"/>
      <point x="97" y="245"/>
      <point x="122" y="226"/>
      <point x="157" y="207" type="curve"/>
      <point x="149" y="175"/>
      <point x="105" y="147"/>
      <point x="74" y="135" type="curve" smooth="yes"/>
      <point x="42" y="123"/>
      <point x="24" y="114"/>
      <point x="24" y="89" type="curve" smooth="yes"/>
      <point x="24" y="63"/>
      <point x="44" y="46"/>
    </contour>
    <contour>
      <point x="575" y="468" type="curve" smooth="yes"/>
      <point x="602" y="468"/>
      <point x="629" y="490"/>
      <point x="629" y="521" type="curve" smooth="yes"/>
      <point x="629" y="548"/>
      <point x="609" y="569"/>
      <point x="581" y="569" type="curve" smooth="yes"/>
      <point x="553" y="569"/>
      <point x="528" y="546"/>
      <point x="528" y="515" type="curve" smooth="yes"/>
      <point x="528" y="488"/>
      <point x="548" y="468"/>
    </contour>
    <contour>
      <point x="469" y="342" type="curve" smooth="yes"/>
      <point x="496" y="342"/>
      <point x="523" y="364"/>
      <point x="523" y="395" type="curve" smooth="yes"/>
      <point x="523" y="422"/>
      <point x="503" y="443"/>
      <point x="475" y="443" type="curve" smooth="yes"/>
      <point x="448" y="443"/>
      <point x="422" y="420"/>
      <point x="422" y="389" type="curve" smooth="yes"/>
      <point x="422" y="362"/>
      <point x="442" y="342"/>
    </contour>
    <contour>
      <point x="659" y="342" type="curve" smooth="yes"/>
      <point x="687" y="342"/>
      <point x="714" y="364"/>
      <point x="714" y="395" type="curve" smooth="yes"/>
      <point x="714" y="422"/>
      <point x="693" y="443"/>
      <point x="666" y="443" type="curve" smooth="yes"/>
      <point x="638" y="443"/>
      <point x="613" y="420"/>
      <point x="613" y="389" type="curve" smooth="yes"/>
      <point x="613" y="362"/>
      <point x="632" y="342"/>
    </contour>
  </outline>
</glyph>
<glyph name="uni079E" format="2">
  <advance width="1019"/>
  <unicode hex="079E"/>
  <outline>
    <contour>
      <point x="75" y="46" type="curve" smooth="yes"/>
      <point x="92" y="46"/>
      <point x="112" y="54"/>
      <point x="133" y="66" type="curve" smooth="yes"/>
      <point x="178" y="92"/>
      <point x="229" y="139"/>
      <point x="249" y="185" type="curve"/>
      <point x="318" y="175"/>
      <point x="405" y="166"/>
      <point x="538" y="166" type="curve" smooth="yes"/>
      <point x="688" y="166"/>
      <point x="830" y="173"/>
      <point x="919" y="235" type="curve" smooth="yes"/>
      <point x="944" y="252"/>
      <point x="964" y="273"/>
      <point x="980" y="300" type="curve" smooth="yes"/>
      <point x="992" y="321"/>
      <point x="1000" y="340"/>
      <point x="1000" y="365" type="curve" smooth="yes"/>
      <point x="1000" y="390"/>
      <point x="990" y="405"/>
      <point x="964" y="405" type="curve" smooth="yes"/>
      <point x="938" y="405"/>
      <point x="928" y="392"/>
      <point x="914" y="363" type="curve" smooth="yes"/>
      <point x="898" y="331"/>
      <point x="871" y="302"/>
      <point x="836" y="286" type="curve" smooth="yes"/>
      <point x="793" y="266"/>
      <point x="662" y="254"/>
      <point x="533" y="254" type="curve" smooth="yes"/>
      <point x="425" y="254"/>
      <point x="339" y="260"/>
      <point x="265" y="271" type="curve"/>
      <point x="261" y="326"/>
      <point x="226" y="363"/>
      <point x="175" y="363" type="curve" smooth="yes"/>
      <point x="131" y="363"/>
      <point x="97" y="321"/>
      <point x="97" y="284" type="curve" smooth="yes"/>
      <point x="97" y="245"/>
      <point x="122" y="226"/>
      <point x="157" y="207" type="curve"/>
      <point x="149" y="175"/>
      <point x="105" y="147"/>
      <point x="74" y="135" type="curve" smooth="yes"/>
      <point x="42" y="123"/>
      <point x="24" y="114"/>
      <point x="24" y="89" type="curve" smooth="yes"/>
      <point x="24" y="63"/>
      <point x="44" y="46"/>
    </contour>
    <contour>
      <point x="532" y="0" type="curve" smooth="yes"/>
      <point x="559" y="0"/>
      <point x="586" y="22"/>
      <point x="586" y="53" type="curve" smooth="yes"/>
      <point x="586" y="80"/>
      <point x="565" y="101"/>
      <point x="538" y="101" type="curve" smooth="yes"/>
      <point x="510" y="101"/>
      <point x="485" y="78"/>
      <point x="485" y="47" type="curve" smooth="yes"/>
      <point x="485" y="20"/>
      <point x="504" y="0"/>
    </contour>
  </outline>
</glyph>
<glyph name="uni079F" format="2">
  <advance width="1019"/>
  <unicode hex="079F"/>
  <outline>
    <contour>
      <point x="75" y="46" type="curve" smooth="yes"/>
      <point x="92" y="46"/>
      <point x="112" y="54"/>
      <point x="133" y="66" type="curve" smooth="yes"/>
      <point x="178" y="92"/>
      <point x="229" y="139"/>
      <point x="249" y="185" type="curve"/>
      <point x="318" y="175"/>
      <point x="405" y="166"/>
      <point x="538" y="166" type="curve" smooth="yes"/>
      <point x="688" y="166"/>
      <point x="830" y="173"/>
      <point x="919" y="235" type="curve" smooth="yes"/>
      <point x="944" y="252"/>
      <point x="964" y="273"/>
      <point x="980" y="300" type="curve" smooth="yes"/>
      <point x="992" y="321"/>
      <point x="1000" y="340"/>
      <point x="1000" y="365" type="curve" smooth="yes"/>
      <point x="1000" y="390"/>
      <point x="990" y="405"/>
      <point x="964" y="405" type="curve" smooth="yes"/>
      <point x="938" y="405"/>
      <point x="928" y="392"/>
      <point x="914" y="363" type="curve" smooth="yes"/>
      <point x="898" y="331"/>
      <point x="871" y="302"/>
      <point x="836" y="286" type="curve" smooth="yes"/>
      <point x="793" y="266"/>
      <point x="662" y="254"/>
      <point x="533" y="254" type="curve" smooth="yes"/>
      <point x="425" y="254"/>
      <point x="339" y="260"/>
      <point x="265" y="271" type="curve"/>
      <point x="261" y="326"/>
      <point x="226" y="363"/>
      <point x="175" y="363" type="curve" smooth="yes"/>
      <point x="131" y="363"/>
      <point x="97" y="321"/>
      <point x="97" y="284" type="curve" smooth="yes"/>
      <point x="97" y="245"/>
      <point x="122" y="226"/>
      <point x="157" y="207" type="curve"/>
      <point x="149" y="175"/>
      <point x="105" y="147"/>
      <point x="74" y="135" type="curve" smooth="yes"/>
      <point x="42" y="123"/>
      <point x="24" y="114"/>
      <point x="24" y="89" type="curve" smooth="yes"/>
      <point x="24" y="63"/>
      <point x="44" y="46"/>
    </contour>
    <contour>
      <point x="571" y="333" type="curve" smooth="yes"/>
      <point x="598" y="333"/>
      <point x="625" y="355"/>
      <point x="625" y="385" type="curve" smooth="yes"/>
      <point x="625" y="412"/>
      <point x="604" y="434"/>
      <point x="577" y="434" type="curve" smooth="yes"/>
      <point x="549" y="434"/>
      <point x="524" y="411"/>
      <point x="524" y="380" type="curve" smooth="yes"/>
      <point x="524" y="353"/>
      <point x="543" y="333"/>
    </contour>
  </outline>
</glyph>
<glyph name="uni07A4" format="2">
  <advance width="500"/>
  <unicode hex="07A4"/>
  <outline>
    <contour>
      <point x="73" y="-44" type="curve" smooth="yes"/>
      <point x="201" y="-44"/>
      <point x="355" y="10"/>
      <point x="355" y="112" type="curve" smooth="yes"/>
      <point x="355" y="137"/>
      <point x="334" y="160"/>
      <point x="313" y="180" type="curve" smooth="yes"/>
      <point x="297" y="195"/>
      <point x="283" y="208"/>
      <point x="283" y="216" type="curve" smooth="yes"/>
      <point x="283" y="225"/>
      <point x="296" y="234"/>
      <point x="319" y="248" type="curve" smooth="yes"/>
      <point x="341" y="261"/>
      <point x="372" y="279"/>
      <point x="407" y="297" type="curve" smooth="yes"/>
      <point x="448" y="318"/>
      <point x="473" y="330"/>
      <point x="473" y="349" type="curve" smooth="yes"/>
      <point x="473" y="372"/>
      <point x="456" y="391"/>
      <point x="426" y="391" type="curve" smooth="yes"/>
      <point x="404" y="391"/>
      <point x="355" y="368"/>
      <point x="333" y="356" type="curve" smooth="yes"/>
      <point x="274" y="325"/>
      <point x="262" y="316"/>
      <point x="250" y="308" type="curve" smooth="yes"/>
      <point x="199" y="273"/>
      <point x="185" y="247"/>
      <point x="185" y="222" type="curve" smooth="yes"/>
      <point x="185" y="193"/>
      <point x="203" y="169"/>
      <point x="222" y="149" type="curve" smooth="yes"/>
      <point x="240" y="130"/>
      <point x="257" y="114"/>
      <point x="257" y="103" type="curve" smooth="yes"/>
      <point x="257" y="66"/>
      <point x="182" y="44"/>
      <point x="90" y="44" type="curve" smooth="yes"/>
      <point x="65" y="44"/>
      <point x="44" y="50"/>
      <point x="27" y="55" type="curve" smooth="yes"/>
      <point x="11" y="60"/>
      <point x="1" y="63"/>
      <point x="-10" y="63" type="curve" smooth="yes"/>
      <point x="-35" y="63"/>
      <point x="-56" y="43"/>
      <point x="-56" y="15" type="curve" smooth="yes"/>
      <point x="-56" y="-9"/>
      <point x="-36" y="-25"/>
      <point x="-9" y="-34" type="curve" smooth="yes"/>
      <point x="13" y="-41"/>
      <point x="39" y="-44"/>
    </contour>
    <contour>
      <point x="409" y="420" type="curve" smooth="yes"/>
      <point x="436" y="420"/>
      <point x="463" y="442"/>
      <point x="463" y="473" type="curve" smooth="yes"/>
      <point x="463" y="500"/>
      <point x="442" y="521"/>
      <point x="415" y="521" type="curve" smooth="yes"/>
      <point x="387" y="521"/>
      <point x="362" y="498"/>
      <point x="362" y="467" type="curve" smooth="yes"/>
      <point x="362" y="440"/>
      <point x="381" y="420"/>
    </contour>
    <contour>
      <point x="248" y="420" type="curve" smooth="yes"/>
      <point x="275" y="420"/>
      <point x="302" y="442"/>
      <point x="302" y="473" type="curve" smooth="yes"/>
      <point x="302" y="500"/>
      <point x="281" y="521"/>
      <point x="254" y="521" type="curve" smooth="yes"/>
      <point x="226" y="521"/>
      <point x="201" y="498"/>
      <point x="201" y="467" type="curve" smooth="yes"/>
      <point x="201" y="440"/>
      <point x="220" y="420"/>
    </contour>
  </outline>
</glyph>
<glyph name="uni07A5" format="2">
  <advance width="506"/>
  <unicode hex="07A5"/>
  <outline>
    <contour>
      <point x="-29" y="-78" type="curve" smooth="yes"/>
      <point x="-3" y="-78"/>
      <point x="94" y="-38"/>
      <point x="155" y="2" type="curve" smooth="yes"/>
      <point x="232" y="52"/>
      <point x="338" y="137"/>
      <point x="397" y="202" type="curve" smooth="yes"/>
      <point x="432" y="241"/>
      <point x="451" y="284"/>
      <point x="451" y="329" type="curve" smooth="yes"/>
      <point x="451" y="382"/>
      <point x="410" y="405"/>
      <point x="351" y="405" type="curve" smooth="yes"/>
      <point x="244" y="405"/>
      <point x="143" y="318"/>
      <point x="143" y="234" type="curve" smooth="yes"/>
      <point x="143" y="197"/>
      <point x="162" y="165"/>
      <point x="197" y="144" type="curve"/>
      <point x="160" y="121"/>
      <point x="109" y="93"/>
      <point x="58" y="69" type="curve" smooth="yes"/>
      <point x="23" y="53"/>
      <point x="-13" y="39"/>
      <point x="-45" y="32" type="curve" smooth="yes"/>
      <point x="-75" y="25"/>
      <point x="-91" y="6"/>
      <point x="-91" y="-23" type="curve" smooth="yes"/>
      <point x="-91" y="-56"/>
      <point x="-70" y="-78"/>
    </contour>
    <contour>
      <point x="286" y="206" type="curve"/>
      <point x="260" y="208"/>
      <point x="236" y="215"/>
      <point x="236" y="241" type="curve" smooth="yes"/>
      <point x="236" y="284"/>
      <point x="292" y="325"/>
      <point x="332" y="325" type="curve" smooth="yes"/>
      <point x="355" y="325"/>
      <point x="360" y="316"/>
      <point x="360" y="305" type="curve" smooth="yes"/>
      <point x="360" y="271"/>
      <point x="322" y="234"/>
    </contour>
    <contour>
      <point x="350" y="430" type="curve" smooth="yes"/>
      <point x="377" y="430"/>
      <point x="404" y="452"/>
      <point x="404" y="482" type="curve" smooth="yes"/>
      <point x="404" y="509"/>
      <point x="383" y="531"/>
      <point x="356" y="531" type="curve" smooth="yes"/>
      <point x="328" y="531"/>
      <point x="303" y="508"/>
      <point x="303" y="477" type="curve" smooth="yes"/>
      <point x="303" y="450"/>
      <point x="322" y="430"/>
    </contour>
  </outline>
</glyph>
<glyph name="uni07A6" format="2">
  <unicode hex="07A6"/>
  <outline>
    <contour>
      <point x="45" y="430" type="curve" smooth="yes"/>
      <point x="59" y="430"/>
      <point x="76" y="433"/>
      <point x="96" y="440" type="curve" smooth="yes"/>
      <point x="157" y="460"/>
      <point x="289" y="534"/>
      <point x="328" y="572" type="curve" smooth="yes"/>
      <point x="344" y="588"/>
      <point x="353" y="603"/>
      <point x="353" y="620" type="curve" smooth="yes"/>
      <point x="353" y="639"/>
      <point x="343" y="652"/>
      <point x="318" y="652" type="curve" smooth="yes"/>
      <point x="302" y="652"/>
      <point x="287" y="646"/>
      <point x="264" y="627" type="curve" smooth="yes"/>
      <point x="190" y="566"/>
      <point x="102" y="526"/>
      <point x="53" y="513" type="curve" smooth="yes"/>
      <point x="23" y="505"/>
      <point x="0" y="495"/>
      <point x="0" y="465" type="curve" smooth="yes"/>
      <point x="0" y="439"/>
      <point x="23" y="430"/>
    </contour>
  </outline>
</glyph>
<glyph name="uni07A7" format="2">
  <unicode hex="07A7"/>
  <outline>
    <contour>
      <point x="45" y="556" type="curve" smooth="yes"/>
      <point x="59" y="556"/>
      <point x="76" y="559"/>
      <point x="96" y="566" type="curve" smooth="yes"/>
      <point x="149" y="585"/>
      <point x="269" y="659"/>
      <point x="308" y="698" type="curve" smooth="yes"/>
      <point x="324" y="714"/>
      <point x="333" y="729"/>
      <point x="333" y="746" type="curve" smooth="yes"/>
      <point x="333" y="765"/>
      <point x="323" y="778"/>
      <point x="298" y="778" type="curve" smooth="yes"/>
      <point x="282" y="778"/>
      <point x="267" y="772"/>
      <point x="244" y="753" type="curve" smooth="yes"/>
      <point x="174" y="695"/>
      <point x="98" y="652"/>
      <point x="53" y="639" type="curve" smooth="yes"/>
      <point x="23" y="630"/>
      <point x="0" y="621"/>
      <point x="0" y="591" type="curve" smooth="yes"/>
      <point x="0" y="565"/>
      <point x="23" y="556"/>
    </contour>
    <contour>
      <point x="99" y="430" type="curve" smooth="yes"/>
      <point x="113" y="430"/>
      <point x="130" y="433"/>
      <point x="150" y="440" type="curve" smooth="yes"/>
      <point x="203" y="460"/>
      <point x="323" y="533"/>
      <point x="362" y="572" type="curve" smooth="yes"/>
      <point x="378" y="588"/>
      <point x="387" y="603"/>
      <point x="387" y="620" type="curve" smooth="yes"/>
      <point x="387" y="639"/>
      <point x="377" y="652"/>
      <point x="352" y="652" type="curve" smooth="yes"/>
      <point x="336" y="652"/>
      <point x="320" y="647"/>
      <point x="298" y="627" type="curve" smooth="yes"/>
      <point x="231" y="566"/>
      <point x="152" y="526"/>
      <point x="107" y="513" type="curve" smooth="yes"/>
      <point x="77" y="504"/>
      <point x="54" y="495"/>
      <point x="54" y="465" type="curve" smooth="yes"/>
      <point x="54" y="439"/>
      <point x="77" y="430"/>
    </contour>
  </outline>
</glyph>
<glyph name="uni07A8" format="2">
  <unicode hex="07A8"/>
  <outline>
    <contour>
      <point x="-17" y="-298" type="curve" smooth="yes"/>
      <point x="-3" y="-298"/>
      <point x="14" y="-295"/>
      <point x="34" y="-288" type="curve" smooth="yes"/>
      <point x="93" y="-267"/>
      <point x="227" y="-195"/>
      <point x="266" y="-156" type="curve" smooth="yes"/>
      <point x="282" y="-140"/>
      <point x="291" y="-125"/>
      <point x="291" y="-108" type="curve" smooth="yes"/>
      <point x="291" y="-89"/>
      <point x="281" y="-76"/>
      <point x="256" y="-76" type="curve" smooth="yes"/>
      <point x="240" y="-76"/>
      <point x="225" y="-82"/>
      <point x="202" y="-101" type="curve" smooth="yes"/>
      <point x="128" y="-162"/>
      <point x="41" y="-202"/>
      <point x="-9" y="-215" type="curve" smooth="yes"/>
      <point x="-39" y="-223"/>
      <point x="-62" y="-233"/>
      <point x="-62" y="-263" type="curve" smooth="yes"/>
      <point x="-62" y="-289"/>
      <point x="-39" y="-298"/>
    </contour>
  </outline>
</glyph>
<glyph name="uni07A9" format="2">
  <unicode hex="07A9"/>
  <outline>
    <contour>
      <point x="45" y="-288" type="curve" smooth="yes"/>
      <point x="59" y="-288"/>
      <point x="76" y="-285"/>
      <point x="96" y="-278" type="curve" smooth="yes"/>
      <point x="149" y="-259"/>
      <point x="269" y="-185"/>
      <point x="308" y="-146" type="curve" smooth="yes"/>
      <point x="324" y="-130"/>
      <point x="333" y="-115"/>
      <point x="333" y="-98" type="curve" smooth="yes"/>
      <point x="333" y="-79"/>
      <point x="323" y="-66"/>
      <point x="298" y="-66" type="curve" smooth="yes"/>
      <point x="282" y="-66"/>
      <point x="267" y="-72"/>
      <point x="244" y="-91" type="curve" smooth="yes"/>
      <point x="174" y="-149"/>
      <point x="98" y="-192"/>
      <point x="53" y="-205" type="curve" smooth="yes"/>
      <point x="23" y="-214"/>
      <point x="0" y="-223"/>
      <point x="0" y="-253" type="curve" smooth="yes"/>
      <point x="0" y="-279"/>
      <point x="23" y="-288"/>
    </contour>
    <contour>
      <point x="99" y="-414" type="curve" smooth="yes"/>
      <point x="113" y="-414"/>
      <point x="130" y="-411"/>
      <point x="150" y="-404" type="curve" smooth="yes"/>
      <point x="203" y="-385"/>
      <point x="323" y="-311"/>
      <point x="362" y="-272" type="curve" smooth="yes"/>
      <point x="378" y="-256"/>
      <point x="387" y="-241"/>
      <point x="387" y="-224" type="curve" smooth="yes"/>
      <point x="387" y="-205"/>
      <point x="377" y="-192"/>
      <point x="352" y="-192" type="curve" smooth="yes"/>
      <point x="336" y="-192"/>
      <point x="321" y="-198"/>
      <point x="298" y="-217" type="curve" smooth="yes"/>
      <point x="228" y="-275"/>
      <point x="152" y="-318"/>
      <point x="107" y="-331" type="curve" smooth="yes"/>
      <point x="77" y="-340"/>
      <point x="54" y="-349"/>
      <point x="54" y="-379" type="curve" smooth="yes"/>
      <point x="54" y="-405"/>
      <point x="77" y="-414"/>
    </contour>
  </outline>
</glyph>
<glyph name="uni07AA" format="2">
  <unicode hex="07AA"/>
  <outline>
    <contour>
      <point x="56" y="430" type="curve" smooth="yes"/>
      <point x="89" y="430"/>
      <point x="134" y="450"/>
      <point x="205" y="496" type="curve" smooth="yes"/>
      <point x="276" y="542"/>
      <point x="297" y="580"/>
      <point x="297" y="618" type="curve" smooth="yes"/>
      <point x="297" y="661"/>
      <point x="209" y="685"/>
      <point x="136" y="685" type="curve" smooth="yes"/>
      <point x="84" y="685"/>
      <point x="40" y="675"/>
      <point x="40" y="640" type="curve" smooth="yes"/>
      <point x="40" y="617"/>
      <point x="50" y="603"/>
      <point x="93" y="603" type="curve" smooth="yes"/>
      <point x="110" y="603"/>
      <point x="125" y="604"/>
      <point x="144" y="604" type="curve" smooth="yes"/>
      <point x="166" y="604"/>
      <point x="200" y="597"/>
      <point x="209" y="591" type="curve"/>
      <point x="182" y="562"/>
      <point x="135" y="545"/>
      <point x="53" y="518" type="curve" smooth="yes"/>
      <point x="17" y="506"/>
      <point x="2" y="496"/>
      <point x="2" y="468" type="curve" smooth="yes"/>
      <point x="2" y="442"/>
      <point x="20" y="430"/>
    </contour>
  </outline>
</glyph>
<glyph name="uni07AB" format="2">
  <unicode hex="07AB"/>
  <outline>
    <contour>
      <point x="349" y="430" type="curve" smooth="yes"/>
      <point x="382" y="430"/>
      <point x="427" y="450"/>
      <point x="498" y="496" type="curve" smooth="yes"/>
      <point x="570" y="542"/>
      <point x="590" y="580"/>
      <point x="590" y="618" type="curve" smooth="yes"/>
      <point x="590" y="661"/>
      <point x="502" y="685"/>
      <point x="429" y="685" type="curve" smooth="yes"/>
      <point x="377" y="685"/>
      <point x="333" y="675"/>
      <point x="333" y="640" type="curve" smooth="yes"/>
      <point x="333" y="617"/>
      <point x="343" y="603"/>
      <point x="386" y="603" type="curve" smooth="yes"/>
      <point x="403" y="603"/>
      <point x="417" y="604"/>
      <point x="437" y="604" type="curve" smooth="yes"/>
      <point x="458" y="604"/>
      <point x="493" y="597"/>
      <point x="502" y="591" type="curve"/>
      <point x="475" y="562"/>
      <point x="428" y="545"/>
      <point x="346" y="518" type="curve" smooth="yes"/>
      <point x="310" y="506"/>
      <point x="295" y="496"/>
      <point x="295" y="468" type="curve" smooth="yes"/>
      <point x="295" y="442"/>
      <point x="313" y="430"/>
    </contour>
    <contour>
      <point x="56" y="430" type="curve" smooth="yes"/>
      <point x="89" y="430"/>
      <point x="134" y="451"/>
      <point x="205" y="496" type="curve" smooth="yes"/>
      <point x="277" y="542"/>
      <point x="297" y="580"/>
      <point x="297" y="618" type="curve" smooth="yes"/>
      <point x="297" y="661"/>
      <point x="209" y="685"/>
      <point x="136" y="685" type="curve" smooth="yes"/>
      <point x="84" y="685"/>
      <point x="40" y="675"/>
      <point x="40" y="640" type="curve" smooth="yes"/>
      <point x="40" y="617"/>
      <point x="50" y="603"/>
      <point x="93" y="603" type="curve" smooth="yes"/>
      <point x="110" y="603"/>
      <point x="125" y="604"/>
      <point x="144" y="604" type="curve" smooth="yes"/>
      <point x="166" y="604"/>
      <point x="200" y="597"/>
      <point x="209" y="591" type="curve"/>
      <point x="182" y="562"/>
      <point x="135" y="545"/>
      <point x="53" y="518" type="curve" smooth="yes"/>
      <point x="17" y="506"/>
      <point x="2" y="496"/>
      <point x="2" y="468" type="curve" smooth="yes"/>
      <point x="2" y="442"/>
      <point x="20" y="430"/>
    </contour>
  </outline>
</glyph>
<glyph name="uni07AC" format="2">
  <unicode hex="07AC"/>
  <outline>
    <contour>
      <point x="148" y="430" type="curve" smooth="yes"/>
      <point x="194" y="430"/>
      <point x="252" y="438"/>
      <point x="252" y="478" type="curve" smooth="yes"/>
      <point x="252" y="501"/>
      <point x="250" y="521"/>
      <point x="214" y="521" type="curve" smooth="yes"/>
      <point x="200" y="521"/>
      <point x="179" y="516"/>
      <point x="165" y="516" type="curve" smooth="yes"/>
      <point x="129" y="516"/>
      <point x="109" y="527"/>
      <point x="98" y="536" type="curve"/>
      <point x="109" y="561"/>
      <point x="160" y="590"/>
      <point x="229" y="631" type="curve" smooth="yes"/>
      <point x="238" y="636"/>
      <point x="254" y="646"/>
      <point x="254" y="667" type="curve" smooth="yes"/>
      <point x="254" y="691"/>
      <point x="237" y="702"/>
      <point x="214" y="702" type="curve" smooth="yes"/>
      <point x="181" y="702"/>
      <point x="134" y="678"/>
      <point x="83" y="636" type="curve" smooth="yes"/>
      <point x="17" y="582"/>
      <point x="0" y="561"/>
      <point x="0" y="528" type="curve" smooth="yes"/>
      <point x="0" y="486"/>
      <point x="54" y="430"/>
    </contour>
  </outline>
</glyph>
<glyph name="uni07AD" format="2">
  <unicode hex="07AD"/>
  <outline>
    <contour>
      <point x="436" y="430" type="curve" smooth="yes"/>
      <point x="482" y="430"/>
      <point x="541" y="438"/>
      <point x="541" y="478" type="curve" smooth="yes"/>
      <point x="541" y="501"/>
      <point x="538" y="521"/>
      <point x="502" y="521" type="curve" smooth="yes"/>
      <point x="488" y="521"/>
      <point x="467" y="516"/>
      <point x="453" y="516" type="curve" smooth="yes"/>
      <point x="417" y="516"/>
      <point x="397" y="527"/>
      <point x="386" y="536" type="curve"/>
      <point x="397" y="561"/>
      <point x="448" y="590"/>
      <point x="517" y="631" type="curve" smooth="yes"/>
      <point x="526" y="636"/>
      <point x="542" y="646"/>
      <point x="542" y="667" type="curve" smooth="yes"/>
      <point x="542" y="691"/>
      <point x="525" y="702"/>
      <point x="502" y="702" type="curve" smooth="yes"/>
      <point x="469" y="702"/>
      <point x="422" y="677"/>
      <point x="371" y="636" type="curve" smooth="yes"/>
      <point x="306" y="583"/>
      <point x="288" y="561"/>
      <point x="288" y="528" type="curve" smooth="yes"/>
      <point x="288" y="486"/>
      <point x="342" y="430"/>
    </contour>
    <contour>
      <point x="148" y="430" type="curve" smooth="yes"/>
      <point x="194" y="430"/>
      <point x="252" y="438"/>
      <point x="252" y="478" type="curve" smooth="yes"/>
      <point x="252" y="501"/>
      <point x="250" y="521"/>
      <point x="214" y="521" type="curve" smooth="yes"/>
      <point x="200" y="521"/>
      <point x="179" y="516"/>
      <point x="165" y="516" type="curve" smooth="yes"/>
      <point x="129" y="516"/>
      <point x="109" y="527"/>
      <point x="98" y="536" type="curve"/>
      <point x="109" y="561"/>
      <point x="160" y="590"/>
      <point x="229" y="631" type="curve" smooth="yes"/>
      <point x="238" y="636"/>
      <point x="254" y="646"/>
      <point x="254" y="667" type="curve" smooth="yes"/>
      <point x="254" y="691"/>
      <point x="237" y="702"/>
      <point x="214" y="702" type="curve" smooth="yes"/>
      <point x="181" y="702"/>
      <point x="134" y="678"/>
      <point x="83" y="636" type="curve" smooth="yes"/>
      <point x="18" y="583"/>
      <point x="0" y="561"/>
      <point x="0" y="528" type="curve" smooth="yes"/>
      <point x="0" y="486"/>
      <point x="54" y="430"/>
    </contour>
  </outline>
</glyph>
<glyph name="uni07AE" format="2">
  <unicode hex="07AE"/>
  <outline>
    <contour>
      <point x="56" y="430" type="curve" smooth="yes"/>
      <point x="87" y="430"/>
      <point x="131" y="449"/>
      <point x="198" y="491" type="curve"/>
      <point x="218" y="459"/>
      <point x="265" y="430"/>
      <point x="333" y="430" type="curve" smooth="yes"/>
      <point x="380" y="430"/>
      <point x="438" y="438"/>
      <point x="438" y="478" type="curve" smooth="yes"/>
      <point x="438" y="501"/>
      <point x="435" y="521"/>
      <point x="399" y="521" type="curve" smooth="yes"/>
      <point x="385" y="521"/>
      <point x="364" y="516"/>
      <point x="351" y="516" type="curve" smooth="yes"/>
      <point x="314" y="516"/>
      <point x="295" y="527"/>
      <point x="283" y="536" type="curve"/>
      <point x="295" y="561"/>
      <point x="345" y="590"/>
      <point x="414" y="631" type="curve" smooth="yes"/>
      <point x="424" y="637"/>
      <point x="439" y="646"/>
      <point x="439" y="667" type="curve" smooth="yes"/>
      <point x="439" y="691"/>
      <point x="423" y="702"/>
      <point x="400" y="702" type="curve" smooth="yes"/>
      <point x="369" y="702"/>
      <point x="326" y="682"/>
      <point x="281" y="647" type="curve"/>
      <point x="252" y="672"/>
      <point x="190" y="685"/>
      <point x="136" y="685" type="curve" smooth="yes"/>
      <point x="84" y="685"/>
      <point x="40" y="675"/>
      <point x="40" y="640" type="curve" smooth="yes"/>
      <point x="40" y="617"/>
      <point x="50" y="603"/>
      <point x="93" y="603" type="curve" smooth="yes"/>
      <point x="110" y="603"/>
      <point x="125" y="604"/>
      <point x="144" y="604" type="curve" smooth="yes"/>
      <point x="166" y="604"/>
      <point x="200" y="597"/>
      <point x="209" y="591" type="curve"/>
      <point x="182" y="562"/>
      <point x="135" y="545"/>
      <point x="53" y="518" type="curve" smooth="yes"/>
      <point x="17" y="506"/>
      <point x="2" y="496"/>
      <point x="2" y="468" type="curve" smooth="yes"/>
      <point x="2" y="442"/>
      <point x="20" y="430"/>
    </contour>
  </outline>
</glyph>
<glyph name="uni07AF" format="2">
  <unicode hex="07AF"/>
  <outline>
    <contour>
      <point x="138" y="430" type="curve" smooth="yes"/>
      <point x="248" y="430"/>
      <point x="300" y="480"/>
      <point x="300" y="516" type="curve" smooth="yes"/>
      <point x="300" y="534"/>
      <point x="289" y="545"/>
      <point x="270" y="545" type="curve" smooth="yes"/>
      <point x="242" y="545"/>
      <point x="214" y="511"/>
      <point x="142" y="511" type="curve" smooth="yes"/>
      <point x="116" y="511"/>
      <point x="90" y="522"/>
      <point x="90" y="565" type="curve" smooth="yes"/>
      <point x="90" y="627"/>
      <point x="222" y="770"/>
      <point x="327" y="770" type="curve" smooth="yes"/>
      <point x="348" y="770"/>
      <point x="351" y="756"/>
      <point x="351" y="749" type="curve" smooth="yes"/>
      <point x="351" y="728"/>
      <point x="330" y="711"/>
      <point x="317" y="700" type="curve" smooth="yes"/>
      <point x="287" y="676"/>
      <point x="281" y="667"/>
      <point x="281" y="646" type="curve" smooth="yes"/>
      <point x="281" y="624"/>
      <point x="300" y="605"/>
      <point x="321" y="605" type="curve" smooth="yes"/>
      <point x="333" y="605"/>
      <point x="356" y="618"/>
      <point x="368" y="629" type="curve" smooth="yes"/>
      <point x="401" y="658"/>
      <point x="441" y="695"/>
      <point x="441" y="770" type="curve" smooth="yes"/>
      <point x="441" y="821"/>
      <point x="398" y="851"/>
      <point x="327" y="851" type="curve" smooth="yes"/>
      <point x="198" y="851"/>
      <point x="0" y="700"/>
      <point x="0" y="549" type="curve" smooth="yes"/>
      <point x="0" y="460"/>
      <point x="74" y="430"/>
    </contour>
  </outline>
</glyph>
<glyph name="uni07B0" format="2">
  <unicode hex="07B0"/>
  <outline>
    <contour>
      <point x="124" y="430" type="curve" smooth="yes"/>
      <point x="223" y="430"/>
      <point x="313" y="515"/>
      <point x="313" y="623" type="curve" smooth="yes"/>
      <point x="313" y="685"/>
      <point x="281" y="724"/>
      <point x="201" y="724" type="curve" smooth="yes"/>
      <point x="89" y="724"/>
      <point x="0" y="634"/>
      <point x="0" y="548" type="curve" smooth="yes"/>
      <point x="0" y="480"/>
      <point x="46" y="430"/>
    </contour>
    <contour>
      <point x="130" y="509" type="curve" smooth="yes"/>
      <point x="91" y="509"/>
      <point x="88" y="532"/>
      <point x="88" y="553" type="curve" smooth="yes"/>
      <point x="88" y="601"/>
      <point x="121" y="646"/>
      <point x="188" y="646" type="curve" smooth="yes"/>
      <point x="209" y="646"/>
      <point x="226" y="626"/>
      <point x="226" y="605" type="curve" smooth="yes"/>
      <point x="226" y="552"/>
      <point x="181" y="509"/>
    </contour>
  </outline>
</glyph>
<glyph name="uni07B1" format="2">
  <advance width="473"/>
  <unicode hex="07B1"/>
  <outline>
    <contour>
      <point x="221" y="-176" type="curve" smooth="yes"/>
      <point x="273" y="-176"/>
      <point x="321" y="-167"/>
      <point x="359" y="-146" type="curve" smooth="yes"/>
      <point x="397" y="-125"/>
      <point x="417" y="-104"/>
      <point x="417" y="-80" type="curve" smooth="yes"/>
      <point x="417" y="-56"/>
      <point x="402" y="-43"/>
      <point x="380" y="-43" type="curve" smooth="yes"/>
      <point x="372" y="-43"/>
      <point x="361" y="-46"/>
      <point x="344" y="-57" type="curve" smooth="yes"/>
      <point x="295" y="-88"/>
      <point x="266" y="-95"/>
      <point x="226" y="-95" type="curve" smooth="yes"/>
      <point x="154" y="-95"/>
      <point x="117" y="-83"/>
      <point x="117" y="-42" type="curve" smooth="yes"/>
      <point x="117" y="-7"/>
      <point x="174" y="22"/>
      <point x="275" y="77" type="curve" smooth="yes"/>
      <point x="354" y="120"/>
      <point x="443" y="189"/>
      <point x="443" y="276" type="curve" smooth="yes"/>
      <point x="443" y="352"/>
      <point x="371" y="391"/>
      <point x="299" y="391" type="curve" smooth="yes"/>
      <point x="215" y="391"/>
      <point x="117" y="336"/>
      <point x="117" y="253" type="curve" smooth="yes"/>
      <point x="117" y="183"/>
      <point x="173" y="153"/>
      <point x="238" y="140" type="curve"/>
      <point x="211" y="123"/>
      <point x="180" y="107"/>
      <point x="152" y="90" type="curve" smooth="yes"/>
      <point x="87" y="52"/>
      <point x="29" y="11"/>
      <point x="29" y="-47" type="curve" smooth="yes"/>
      <point x="29" y="-140"/>
      <point x="127" y="-176"/>
    </contour>
    <contour>
      <point x="325" y="206" type="curve"/>
      <point x="275" y="208"/>
      <point x="209" y="214"/>
      <point x="209" y="251" type="curve" smooth="yes"/>
      <point x="209" y="286"/>
      <point x="258" y="310"/>
      <point x="295" y="310" type="curve" smooth="yes"/>
      <point x="333" y="310"/>
      <point x="351" y="291"/>
      <point x="351" y="271" type="curve" smooth="yes"/>
      <point x="351" y="242"/>
      <point x="343" y="224"/>
    </contour>
  </outline>
</glyph>
<glyph name="uni200E" format="2">
  <unicode hex="200E"/>
  <outline>
    <contour>
      <point x="-18" y="89" type="line"/>
      <point x="17" y="89" type="line"/>
      <point x="17" y="692" type="line"/>
      <point x="147" y="692" type="line"/>
      <point x="80" y="628" type="line"/>
      <point x="104" y="604" type="line"/>
      <point x="210" y="709" type="line"/>
      <point x="104" y="814" type="line"/>
      <point x="80" y="790" type="line"/>
      <point x="147" y="727" type="line"/>
      <point x="-18" y="727" type="line"/>
    </contour>
  </outline>
</glyph>
<glyph name="quoteleft" format="2">
  <advance width="342"/>
  <unicode hex="2018"/>
  <outline>
    <contour>
      <point x="121" y="509" type="curve" smooth="yes"/>
      <point x="166" y="509"/>
      <point x="207" y="550"/>
      <point x="207" y="592" type="curve" smooth="yes"/>
      <point x="207" y="624"/>
      <point x="185" y="649"/>
      <point x="151" y="651" type="curve"/>
      <point x="165" y="683"/>
      <point x="188" y="706"/>
      <point x="210" y="727" type="curve" smooth="yes"/>
      <point x="219" y="736"/>
      <point x="225" y="741"/>
      <point x="225" y="752" type="curve" smooth="yes"/>
      <point x="225" y="756"/>
      <point x="222" y="774"/>
      <point x="200" y="774" type="curve" smooth="yes"/>
      <point x="183" y="774"/>
      <point x="170" y="760"/>
      <point x="158" y="750" type="curve" smooth="yes"/>
      <point x="124" y="722"/>
      <point x="56" y="633"/>
      <point x="56" y="579" type="curve" smooth="yes"/>
      <point x="56" y="533"/>
      <point x="85" y="509"/>
    </contour>
  </outline>
</glyph>
<glyph name="quoteright" format="2">
  <advance width="342"/>
  <unicode hex="2019"/>
  <outline>
    <contour>
      <point x="164" y="509" type="curve" smooth="yes"/>
      <point x="184" y="509"/>
      <point x="194" y="524"/>
      <point x="206" y="533" type="curve" smooth="yes"/>
      <point x="237" y="558"/>
      <point x="308" y="650"/>
      <point x="308" y="704" type="curve" smooth="yes"/>
      <point x="308" y="750"/>
      <point x="278" y="774"/>
      <point x="243" y="774" type="curve" smooth="yes"/>
      <point x="198" y="774"/>
      <point x="157" y="733"/>
      <point x="157" y="691" type="curve" smooth="yes"/>
      <point x="157" y="660"/>
      <point x="179" y="634"/>
      <point x="212" y="632" type="curve"/>
      <point x="199" y="601"/>
      <point x="175" y="578"/>
      <point x="154" y="557" type="curve" smooth="yes"/>
      <point x="144" y="547"/>
      <point x="139" y="542"/>
      <point x="139" y="531" type="curve" smooth="yes"/>
      <point x="139" y="527"/>
      <point x="142" y="509"/>
    </contour>
  </outline>
</glyph>
<glyph name="quotedblleft" format="2">
  <advance width="562"/>
  <unicode hex="201C"/>
  <outline>
    <contour>
      <point x="340" y="509" type="curve" smooth="yes"/>
      <point x="386" y="509"/>
      <point x="427" y="550"/>
      <point x="427" y="592" type="curve" smooth="yes"/>
      <point x="427" y="624"/>
      <point x="404" y="649"/>
      <point x="371" y="651" type="curve"/>
      <point x="384" y="683"/>
      <point x="408" y="706"/>
      <point x="430" y="727" type="curve" smooth="yes"/>
      <point x="439" y="736"/>
      <point x="444" y="741"/>
      <point x="444" y="752" type="curve" smooth="yes"/>
      <point x="444" y="756"/>
      <point x="442" y="774"/>
      <point x="420" y="774" type="curve" smooth="yes"/>
      <point x="403" y="774"/>
      <point x="389" y="760"/>
      <point x="377" y="750" type="curve" smooth="yes"/>
      <point x="347" y="726"/>
      <point x="276" y="633"/>
      <point x="276" y="579" type="curve" smooth="yes"/>
      <point x="276" y="533"/>
      <point x="305" y="509"/>
    </contour>
    <contour>
      <point x="121" y="509" type="curve" smooth="yes"/>
      <point x="166" y="509"/>
      <point x="207" y="550"/>
      <point x="207" y="592" type="curve" smooth="yes"/>
      <point x="207" y="624"/>
      <point x="185" y="649"/>
      <point x="151" y="651" type="curve"/>
      <point x="165" y="683"/>
      <point x="188" y="706"/>
      <point x="210" y="727" type="curve" smooth="yes"/>
      <point x="219" y="736"/>
      <point x="225" y="741"/>
      <point x="225" y="752" type="curve" smooth="yes"/>
      <point x="225" y="756"/>
      <point x="222" y="774"/>
      <point x="200" y="774" type="curve" smooth="yes"/>
      <point x="183" y="774"/>
      <point x="170" y="760"/>
      <point x="158" y="750" type="curve" smooth="yes"/>
      <point x="127" y="726"/>
      <point x="56" y="633"/>
      <point x="56" y="579" type="curve" smooth="yes"/>
      <point x="56" y="533"/>
      <point x="85" y="509"/>
    </contour>
  </outline>
</glyph>
<glyph name="quotedblright" format="2">
  <advance width="562"/>
  <unicode hex="201D"/>
  <outline>
    <contour>
      <point x="383" y="509" type="curve" smooth="yes"/>
      <point x="400" y="509"/>
      <point x="415" y="523"/>
      <point x="426" y="533" type="curve" smooth="yes"/>
      <point x="457" y="558"/>
      <point x="527" y="650"/>
      <point x="527" y="704" type="curve" smooth="yes"/>
      <point x="527" y="750"/>
      <point x="498" y="774"/>
      <point x="463" y="774" type="curve" smooth="yes"/>
      <point x="417" y="774"/>
      <point x="376" y="733"/>
      <point x="376" y="691" type="curve" smooth="yes"/>
      <point x="376" y="660"/>
      <point x="399" y="634"/>
      <point x="432" y="632" type="curve"/>
      <point x="419" y="601"/>
      <point x="395" y="578"/>
      <point x="374" y="557" type="curve" smooth="yes"/>
      <point x="364" y="547"/>
      <point x="359" y="542"/>
      <point x="359" y="531" type="curve" smooth="yes"/>
      <point x="359" y="527"/>
      <point x="361" y="509"/>
    </contour>
    <contour>
      <point x="164" y="509" type="curve" smooth="yes"/>
      <point x="181" y="509"/>
      <point x="194" y="523"/>
      <point x="206" y="533" type="curve" smooth="yes"/>
      <point x="237" y="558"/>
      <point x="308" y="650"/>
      <point x="308" y="704" type="curve" smooth="yes"/>
      <point x="308" y="750"/>
      <point x="278" y="774"/>
      <point x="243" y="774" type="curve" smooth="yes"/>
      <point x="198" y="774"/>
      <point x="157" y="733"/>
      <point x="157" y="691" type="curve" smooth="yes"/>
      <point x="157" y="660"/>
      <point x="179" y="634"/>
      <point x="212" y="632" type="curve"/>
      <point x="199" y="601"/>
      <point x="175" y="578"/>
      <point x="154" y="557" type="curve" smooth="yes"/>
      <point x="144" y="547"/>
      <point x="139" y="542"/>
      <point x="139" y="531" type="curve" smooth="yes"/>
      <point x="139" y="527"/>
      <point x="142" y="509"/>
    </contour>
  </outline>
</glyph>
<glyph name="uniFDF2" format="2">
  <advance width="987"/>
  <unicode hex="FDF2"/>
  <outline>
    <contour>
      <point x="416" y="0" type="curve" smooth="yes"/>
      <point x="467" y="0"/>
      <point x="493" y="6"/>
      <point x="537" y="30" type="curve"/>
      <point x="561" y="10"/>
      <point x="595" y="2"/>
      <point x="637" y="2" type="curve" smooth="yes"/>
      <point x="698" y="2"/>
      <point x="734" y="10"/>
      <point x="745" y="30" type="curve" smooth="yes"/>
      <point x="766" y="67"/>
      <point x="775" y="98"/>
      <point x="775" y="117" type="curve"/>
      <point x="773" y="202"/>
      <point x="769" y="274"/>
      <point x="756" y="565" type="curve"/>
      <point x="730" y="550"/>
      <point x="710" y="533"/>
      <point x="692" y="516" type="curve"/>
      <point x="710" y="362"/>
      <point x="723" y="229"/>
      <point x="734" y="90" type="curve"/>
      <point x="700" y="74"/>
      <point x="673" y="68"/>
      <point x="637" y="68" type="curve" smooth="yes"/>
      <point x="604" y="68"/>
      <point x="578" y="76"/>
      <point x="551" y="90" type="curve"/>
      <point x="539" y="518" type="line"/>
      <point x="512" y="499"/>
      <point x="492" y="483"/>
      <point x="476" y="467" type="curve"/>
      <point x="510" y="90" type="line"/>
      <point x="477" y="75"/>
      <point x="448" y="68"/>
      <point x="414" y="68" type="curve" smooth="yes"/>
      <point x="380" y="68"/>
      <point x="351" y="76"/>
      <point x="326" y="90" type="curve"/>
      <point x="315" y="402" type="line"/>
      <point x="286" y="384"/>
      <point x="264" y="368"/>
      <point x="246" y="352" type="curve"/>
      <point x="251" y="317" type="line"/>
      <point x="181" y="287"/>
      <point x="117" y="246"/>
      <point x="94" y="202" type="curve" smooth="yes"/>
      <point x="79" y="173"/>
      <point x="68" y="143"/>
      <point x="68" y="131" type="curve" smooth="yes"/>
      <point x="68" y="91"/>
      <point x="173" y="57"/>
      <point x="257" y="50" type="curve"/>
      <point x="267" y="68"/>
      <point x="277" y="83"/>
      <point x="285" y="101" type="curve"/>
      <point x="300" y="25"/>
      <point x="328" y="0"/>
    </contour>
    <contour>
      <point x="281" y="123" type="curve"/>
      <point x="214" y="124"/>
      <point x="160" y="134"/>
      <point x="115" y="171" type="curve"/>
      <point x="142" y="205"/>
      <point x="195" y="236"/>
      <point x="259" y="257" type="curve"/>
      <point x="266" y="212"/>
      <point x="274" y="168"/>
    </contour>
    <contour>
      <point x="453" y="556" type="curve" smooth="yes"/>
      <point x="474" y="556"/>
      <point x="495" y="569"/>
      <point x="507" y="594" type="curve"/>
      <point x="516" y="583"/>
      <point x="531" y="578"/>
      <point x="542" y="578" type="curve" smooth="yes"/>
      <point x="576" y="578"/>
      <point x="601" y="592"/>
      <point x="601" y="628" type="curve" smooth="yes"/>
      <point x="601" y="646"/>
      <point x="595" y="692"/>
      <point x="580" y="721" type="curve"/>
      <point x="564" y="717"/>
      <point x="551" y="701"/>
      <point x="551" y="686" type="curve"/>
      <point x="552" y="676" type="line"/>
      <point x="561" y="656"/>
      <point x="566" y="642"/>
      <point x="568" y="635" type="curve"/>
      <point x="566" y="630"/>
      <point x="557" y="623"/>
      <point x="551" y="623" type="curve" smooth="yes"/>
      <point x="520" y="623"/>
      <point x="512" y="647"/>
      <point x="508" y="686" type="curve"/>
      <point x="480" y="668" type="line"/>
      <point x="481" y="618"/>
      <point x="478" y="599"/>
      <point x="456" y="599" type="curve" smooth="yes"/>
      <point x="441" y="599"/>
      <point x="433" y="609"/>
      <point x="433" y="627" type="curve" smooth="yes"/>
      <point x="433" y="634"/>
      <point x="435" y="645"/>
      <point x="437" y="656" type="curve"/>
      <point x="418" y="661" type="line"/>
      <point x="409" y="644"/>
      <point x="405" y="627"/>
      <point x="405" y="610" type="curve" smooth="yes"/>
      <point x="405" y="575"/>
      <point x="424" y="556"/>
    </contour>
    <contour>
      <point x="489" y="714" type="line"/>
      <point x="501" y="733"/>
      <point x="508" y="758"/>
      <point x="508" y="787" type="curve" smooth="yes"/>
      <point x="508" y="815"/>
      <point x="506" y="843"/>
      <point x="502" y="869" type="curve"/>
      <point x="482" y="864"/>
      <point x="472" y="855"/>
      <point x="472" y="834" type="curve"/>
      <point x="472" y="795"/>
      <point x="483" y="735"/>
      <point x="483" y="716" type="curve"/>
    </contour>
    <contour>
      <point x="873" y="26" type="curve"/>
      <point x="918" y="34" type="line"/>
      <point x="918" y="180"/>
      <point x="919" y="419"/>
      <point x="919" y="481" type="curve"/>
      <point x="943" y="500" type="line"/>
      <point x="932" y="535"/>
      <point x="921" y="570"/>
      <point x="910" y="605" type="curve"/>
      <point x="868" y="597"/>
      <point x="850" y="576"/>
      <point x="850" y="527" type="curve" smooth="yes"/>
      <point x="850" y="478"/>
      <point x="869" y="226"/>
    </contour>
  </outline>
</glyph>
